<?xml version="1.0" encoding="UTF-8" standalone="no"?>
<!-- Created with Inkscape (http://www.inkscape.org/) -->

<svg
   xmlns:dc="http://purl.org/dc/elements/1.1/"
   xmlns:cc="http://creativecommons.org/ns#"
   xmlns:rdf="http://www.w3.org/1999/02/22-rdf-syntax-ns#"
   xmlns:svg="http://www.w3.org/2000/svg"
   xmlns="http://www.w3.org/2000/svg"
   xmlns:sodipodi="http://sodipodi.sourceforge.net/DTD/sodipodi-0.dtd"
   xmlns:inkscape="http://www.inkscape.org/namespaces/inkscape"
   width="128"
   height="128"
   id="svg2"
   version="1.1"
   inkscape:version="0.47 r22583"
   sodipodi:docname="logo.svg"
   inkscape:export-filename="./../www/images/favicon.png"
   inkscape:export-xdpi="11.25"
   inkscape:export-ydpi="11.25">
  <defs
     id="defs4">
    <inkscape:perspective
       sodipodi:type="inkscape:persp3d"
       inkscape:vp_x="0 : 526.18109 : 1"
       inkscape:vp_y="0 : 1000 : 0"
       inkscape:vp_z="744.09448 : 526.18109 : 1"
       inkscape:persp3d-origin="372.04724 : 350.78739 : 1"
       id="perspective10" />
    <inkscape:perspective
       id="perspective13632"
       inkscape:persp3d-origin="0.5 : 0.33333333 : 1"
       inkscape:vp_z="1 : 0.5 : 1"
       inkscape:vp_y="0 : 1000 : 0"
       inkscape:vp_x="0 : 0.5 : 1"
       sodipodi:type="inkscape:persp3d" />
    <filter
       inkscape:collect="always"
       id="filter3641">
      <feGaussianBlur
         inkscape:collect="always"
         stdDeviation="2.7211823"
         id="feGaussianBlur3643" />
    </filter>
  </defs>
  <sodipodi:namedview
     id="base"
     pagecolor="#ffffff"
     bordercolor="#666666"
     borderopacity="1.0"
     inkscape:pageopacity="0.0"
     inkscape:pageshadow="2"
     inkscape:zoom="0.49497475"
     inkscape:cx="144.26493"
     inkscape:cy="-127.72746"
     inkscape:document-units="px"
     inkscape:current-layer="layer1"
     showgrid="false"
     inkscape:window-width="967"
     inkscape:window-height="794"
     inkscape:window-x="165"
     inkscape:window-y="72"
     inkscape:window-maximized="0" />
  <metadata
     id="metadata7">
    <rdf:RDF>
      <cc:Work
         rdf:about="">
        <dc:format>image/svg+xml</dc:format>
        <dc:type
           rdf:resource="http://purl.org/dc/dcmitype/StillImage" />
        <dc:title></dc:title>
      </cc:Work>
    </rdf:RDF>
  </metadata>
  <g
     inkscape:label="Calque 1"
     inkscape:groupmode="layer"
     id="layer1"
     transform="translate(0,-924.36218)">
    <path
       sodipodi:type="star"
       style="fill:#999999;fill-opacity:1;fill-rule:nonzero;stroke:none"
       id="path3599"
       sodipodi:sides="3"
       sodipodi:cx="11.111678"
       sodipodi:cy="6.276618"
       sodipodi:r1="87.977562"
       sodipodi:r2="43.988781"
       sodipodi:arg1="-0.57685657"
       sodipodi:arg2="0.47034098"
       inkscape:flatsided="true"
       inkscape:rounded="0.09"
       inkscape:randomized="3.1225023e-17"
       d="M 84.852816,-41.705629 C 92.332508,-30.210523 29.489854,93.399389 15.794954,94.12944 2.1000547,94.859491 -73.527943,-21.368801 -67.312736,-33.593957 c 6.215208,-12.225156 144.68586,-19.606778 152.165552,-8.111672 z"
       transform="matrix(0.63389762,-0.37398592,0.37398592,0.63389762,60.266138,994.04721)" />
    <path
       id="path3072-9"
       d="m 9.6635352,936.98884 0,0.91911 0,0.95316 0,103.82619 31.6584768,0 c 0.136019,-11.7194 -0.266614,-23.6348 0.204251,-35.2328 2.531966,-1.537 4.436733,-5.9263 7.386973,-6.0593 10.494282,14.2246 23.082352,27.4398 34.347749,41.2921 l 38.398675,0 C 104.10245,1022.8894 86.551956,1003.0856 68.997641,983.28513 85.331553,967.85608 101.65203,952.42015 117.9832,936.98886 l -39.011431,0 c -12.563075,12.30819 -25.106392,24.64532 -37.649757,36.96893 l 0,-36.96893 -31.6584768,0 0,-2e-5 z"
       style="font-size:144px;font-style:normal;font-variant:normal;font-weight:bold;font-stretch:normal;text-align:start;line-height:125%;writing-mode:lr-tb;text-anchor:start;fill:#ececec;fill-opacity:1;fill-rule:evenodd;stroke:none;font-family:FreeSans;-inkscape-font-specification:Bitstream Charter Bold;filter:url(#filter3641)"
       sodipodi:nodetypes="cccccccccccccccc" />
    <path
       sodipodi:nodetypes="cccccccccccccccc"
       style="font-size:144px;font-style:normal;font-variant:normal;font-weight:bold;font-stretch:normal;text-align:start;line-height:125%;writing-mode:lr-tb;text-anchor:start;fill:#440055;fill-opacity:1;fill-rule:evenodd;stroke:none;font-family:FreeSans;-inkscape-font-specification:Bitstream Charter Bold"
       d="m 9.663535,938.98884 0,0.91911 0,0.95316 0,103.82619 31.658477,0 c 0.136019,-11.7194 -0.266614,-23.6348 0.204251,-35.2328 2.531966,-1.537 4.436733,-5.9263 7.386973,-6.0593 10.494282,14.2246 23.082352,27.4398 34.347749,41.2921 l 38.398675,0 C 104.10245,1024.8894 86.551956,1005.0856 68.997641,985.28513 85.331553,969.85608 101.65203,954.42015 117.9832,938.98886 l -39.011431,0 c -12.563075,12.30819 -25.106392,24.64532 -37.649757,36.96893 l 0,-36.96893 -31.658477,0 0,-2e-5 z"
       id="path2825" />
  </g>
</svg>
