<?xml version="1.0" encoding="UTF-8" standalone="no"?>
<!-- Created with Inkscape (http://www.inkscape.org/) -->

<svg
   xmlns:dc="http://purl.org/dc/elements/1.1/"
   xmlns:cc="http://creativecommons.org/ns#"
   xmlns:rdf="http://www.w3.org/1999/02/22-rdf-syntax-ns#"
   xmlns:svg="http://www.w3.org/2000/svg"
   xmlns="http://www.w3.org/2000/svg"
   xmlns:sodipodi="http://sodipodi.sourceforge.net/DTD/sodipodi-0.dtd"
   xmlns:inkscape="http://www.inkscape.org/namespaces/inkscape"
   width="840"
   height="300"
   id="svg2"
   sodipodi:version="0.32"
   inkscape:version="0.48.3.1 r9886"
   version="1.0"
   sodipodi:docname="sprites.svg"
   inkscape:output_extension="org.inkscape.output.svg.inkscape"
   inkscape:export-filename="./../www/images/sprites.png"
   inkscape:export-xdpi="45"
   inkscape:export-ydpi="45">
  <defs
     id="defs4">
    <inkscape:perspective
       sodipodi:type="inkscape:persp3d"
       inkscape:vp_x="0 : 50 : 1"
       inkscape:vp_y="0 : 1000 : 0"
       inkscape:vp_z="300 : 50 : 1"
       inkscape:persp3d-origin="150 : 33.333333 : 1"
       id="perspective19" />
    <inkscape:perspective
       id="perspective2995"
       inkscape:persp3d-origin="0.5 : 0.33333333 : 1"
       inkscape:vp_z="1 : 0.5 : 1"
       inkscape:vp_y="0 : 1000 : 0"
       inkscape:vp_x="0 : 0.5 : 1"
       sodipodi:type="inkscape:persp3d" />
    <inkscape:perspective
       id="perspective3051"
       inkscape:persp3d-origin="0.5 : 0.33333333 : 1"
       inkscape:vp_z="1 : 0.5 : 1"
       inkscape:vp_y="0 : 1000 : 0"
       inkscape:vp_x="0 : 0.5 : 1"
       sodipodi:type="inkscape:persp3d" />
  </defs>
  <sodipodi:namedview
     id="base"
     pagecolor="#ffffff"
     bordercolor="#666666"
     borderopacity="1.0"
     inkscape:pageopacity="0.0"
     inkscape:pageshadow="2"
     inkscape:zoom="5.9134615"
     inkscape:cx="823.33821"
     inkscape:cy="35.879749"
     inkscape:document-units="px"
     inkscape:current-layer="layer1"
     height="100px"
     width="300px"
     inkscape:window-width="1600"
     inkscape:window-height="813"
     inkscape:window-x="0"
     inkscape:window-y="27"
     showgrid="false"
     inkscape:window-maximized="1"
     showguides="true"
     inkscape:guide-bbox="true">
    <sodipodi:guide
       orientation="1,0"
       position="60,-3"
       id="guide2826" />
    <sodipodi:guide
       orientation="1,0"
       position="120,18"
       id="guide2828" />
    <sodipodi:guide
       orientation="1,0"
       position="180,25"
       id="guide2830" />
    <sodipodi:guide
       orientation="1,0"
       position="240,-18"
       id="guide2832" />
    <sodipodi:guide
       orientation="1,0"
       position="300,14"
       id="guide2834" />
    <sodipodi:guide
       orientation="1,0"
       position="360,14"
       id="guide2836" />
    <sodipodi:guide
       orientation="1,0"
       position="420,-4"
       id="guide2838" />
    <sodipodi:guide
       orientation="1,0"
       position="480,-35.5"
       id="guide2862" />
    <sodipodi:guide
       orientation="1,0"
       position="540,-25"
       id="guide2864" />
    <sodipodi:guide
       orientation="1,0"
       position="600,-42.5"
       id="guide2866" />
    <sodipodi:guide
       orientation="1,0"
       position="0,77"
       id="guide2913" />
    <sodipodi:guide
       orientation="1,0"
       position="660,5"
       id="guide2915" />
    <sodipodi:guide
       orientation="1,0"
       position="720,92"
       id="guide2917" />
    <sodipodi:guide
       orientation="1,0"
       position="780,-19"
       id="guide3031" />
    <sodipodi:guide
       orientation="0,1"
       position="336,70"
       id="guide3176" />
    <sodipodi:guide
       orientation="0,1"
       position="720,140"
       id="guide2890" />
  </sodipodi:namedview>
  <metadata
     id="metadata7">
    <rdf:RDF>
      <cc:Work
         rdf:about="">
        <dc:format>image/svg+xml</dc:format>
        <dc:type
           rdf:resource="http://purl.org/dc/dcmitype/StillImage" />
        <dc:title />
      </cc:Work>
    </rdf:RDF>
  </metadata>
  <g
     inkscape:label="Calque 1"
     inkscape:groupmode="layer"
     id="layer1"
     transform="translate(-10.077162,225)">
    <path
       sodipodi:type="star"
       style="fill:#e6e6e6;fill-opacity:1;stroke:none"
       id="path2160"
       sodipodi:sides="3"
       sodipodi:cx="252.11807"
       sodipodi:cy="1015.6689"
       sodipodi:r1="29.591324"
       sodipodi:r2="15.979315"
       sodipodi:arg1="0"
       sodipodi:arg2="1.0471976"
       inkscape:flatsided="true"
       inkscape:rounded="0.09"
       inkscape:randomized="3.1225023e-17"
       d="m 281.7094,1015.6689 c 0,4.6128 -40.39216,27.9332 -44.38699,25.6268 -3.99483,-2.3064 -3.99483,-48.94724 0,-51.25365 3.99483,-2.30642 44.38699,21.01405 44.38699,25.62685 z"
       transform="matrix(0.97081012,0,0,0.9694876,-30.409171,-1014.6784)"
       inkscape:export-filename="C:\www\server\flash\play.png"
       inkscape:export-xdpi="90"
       inkscape:export-ydpi="90" />
    <rect
       style="fill:#e6e6e6;fill-opacity:1;stroke:none"
       id="rect2162"
       width="50"
       height="50"
       x="315.07715"
       y="-55"
       ry="5"
       rx="5"
       inkscape:export-filename="C:\www\server\flash\stop.png"
       inkscape:export-xdpi="90"
       inkscape:export-ydpi="90" />
    <g
       id="g2195"
       transform="translate(235.07716,-134)"
       inkscape:export-filename="C:\www\server\flash\pause.png"
       inkscape:export-xdpi="90"
       inkscape:export-ydpi="90"
       style="fill:#e6e6e6">
      <rect
         ry="5"
         style="fill:#e6e6e6;fill-opacity:1;stroke:none"
         id="rect2166"
         width="15"
         height="50"
         x="25"
         y="79" />
      <rect
         ry="5"
         y="79"
         x="50"
         height="50"
         width="15"
         id="rect2168"
         style="fill:#e6e6e6;fill-opacity:1;stroke:none" />
    </g>
    <g
       id="g2191"
       transform="matrix(0.99472202,0,0,1,207.84369,-80)"
       inkscape:export-filename="C:\www\server\flash\forward.png"
       inkscape:export-xdpi="90"
       inkscape:export-ydpi="90"
       style="fill:#e6e6e6">
      <path
         sodipodi:type="star"
         style="fill:#e6e6e6;fill-opacity:1;stroke:none"
         id="path2164"
         sodipodi:sides="3"
         sodipodi:cx="252.11807"
         sodipodi:cy="1015.6689"
         sodipodi:r1="29.591324"
         sodipodi:r2="14.795662"
         sodipodi:arg1="0"
         sodipodi:arg2="1.0471976"
         inkscape:flatsided="true"
         inkscape:rounded="0.09"
         inkscape:randomized="0"
         d="m 281.7094,1015.6689 c 0,4.6128 -40.39216,27.9332 -44.38699,25.6268 -3.99483,-2.3064 -3.99483,-48.94724 0,-51.25365 3.99483,-2.30642 44.38699,21.01405 44.38699,25.62685 z"
         transform="matrix(0.4477871,0,0,0.9694876,68.721701,-934.67839)" />
      <path
         transform="matrix(0.4477871,0,0,0.9694876,88.721702,-934.67839)"
         d="m 281.7094,1015.6689 c 0,4.6128 -40.39216,27.9332 -44.38699,25.6268 -3.99483,-2.3064 -3.99483,-48.94724 0,-51.25365 3.99483,-2.30642 44.38699,21.01405 44.38699,25.62685 z"
         inkscape:randomized="0"
         inkscape:rounded="0.09"
         inkscape:flatsided="true"
         sodipodi:arg2="1.0471976"
         sodipodi:arg1="0"
         sodipodi:r2="14.795662"
         sodipodi:r1="29.591324"
         sodipodi:cy="1015.6689"
         sodipodi:cx="252.11807"
         sodipodi:sides="3"
         id="path2170"
         style="fill:#e6e6e6;fill-opacity:1;stroke:none"
         sodipodi:type="star" />
    </g>
    <g
       id="g2186"
       transform="matrix(1.0018521,0,0,1,211.01295,-80)"
       inkscape:export-filename="C:\www\server\flash\next.png"
       inkscape:export-xdpi="90"
       inkscape:export-ydpi="90"
       style="fill:#e6e6e6">
      <rect
         rx="5"
         ry="5"
         style="fill:#e6e6e6;fill-opacity:1;stroke:none"
         id="rect2176"
         width="10"
         height="50"
         x="263.55756"
         y="25" />
      <path
         transform="matrix(0.4477871,0,0,0.9694876,118.7217,-934.67839)"
         d="m 281.7094,1015.6689 c 0,4.6128 -40.39216,27.9332 -44.38699,25.6268 -3.99483,-2.3064 -3.99483,-48.94724 0,-51.25365 3.99483,-2.30642 44.38699,21.01405 44.38699,25.62685 z"
         inkscape:randomized="0"
         inkscape:rounded="0.09"
         inkscape:flatsided="true"
         sodipodi:arg2="1.0471976"
         sodipodi:arg1="0"
         sodipodi:r2="14.795662"
         sodipodi:r1="29.591324"
         sodipodi:cy="1015.6689"
         sodipodi:cx="252.11807"
         sodipodi:sides="3"
         id="path2182"
         style="fill:#e6e6e6;fill-opacity:1;stroke:none"
         sodipodi:type="star" />
      <path
         sodipodi:type="star"
         style="fill:#e6e6e6;fill-opacity:1;stroke:none"
         id="path2184"
         sodipodi:sides="3"
         sodipodi:cx="252.11807"
         sodipodi:cy="1015.6689"
         sodipodi:r1="29.591324"
         sodipodi:r2="14.795662"
         sodipodi:arg1="0"
         sodipodi:arg2="1.0471976"
         inkscape:flatsided="true"
         inkscape:rounded="0.09"
         inkscape:randomized="0"
         d="m 281.7094,1015.6689 c 0,4.6128 -40.39216,27.9332 -44.38699,25.6268 -3.99483,-2.3064 -3.99483,-48.94724 0,-51.25365 3.99483,-2.30642 44.38699,21.01405 44.38699,25.62685 z"
         transform="matrix(0.447787,0,0,0.9694876,138.72173,-934.67839)" />
    </g>
    <g
       inkscape:export-ydpi="90"
       inkscape:export-xdpi="90"
       inkscape:export-filename="C:\www\server\flash\forward.png"
       transform="matrix(-0.99472202,0,0,-1,353.31063,19.999996)"
       id="g2840"
       style="fill:#e6e6e6">
      <path
         transform="matrix(0.4477871,0,0,0.9694876,68.721701,-934.67839)"
         d="m 281.7094,1015.6689 c 0,4.6128 -40.39216,27.9332 -44.38699,25.6268 -3.99483,-2.3064 -3.99483,-48.94724 0,-51.25365 3.99483,-2.30642 44.38699,21.01405 44.38699,25.62685 z"
         inkscape:randomized="0"
         inkscape:rounded="0.09"
         inkscape:flatsided="true"
         sodipodi:arg2="1.0471976"
         sodipodi:arg1="0"
         sodipodi:r2="14.795662"
         sodipodi:r1="29.591324"
         sodipodi:cy="1015.6689"
         sodipodi:cx="252.11807"
         sodipodi:sides="3"
         id="path2842"
         style="fill:#e6e6e6;fill-opacity:1;stroke:none"
         sodipodi:type="star" />
      <path
         sodipodi:type="star"
         style="fill:#e6e6e6;fill-opacity:1;stroke:none"
         id="path2844"
         sodipodi:sides="3"
         sodipodi:cx="252.11807"
         sodipodi:cy="1015.6689"
         sodipodi:r1="29.591324"
         sodipodi:r2="14.795662"
         sodipodi:arg1="0"
         sodipodi:arg2="1.0471976"
         inkscape:flatsided="true"
         inkscape:rounded="0.09"
         inkscape:randomized="0"
         d="m 281.7094,1015.6689 c 0,4.6128 -40.39216,27.9332 -44.38699,25.6268 -3.99483,-2.3064 -3.99483,-48.94724 0,-51.25365 3.99483,-2.30642 44.38699,21.01405 44.38699,25.62685 z"
         transform="matrix(0.4477871,0,0,0.9694876,88.721702,-934.67839)" />
    </g>
    <g
       inkscape:export-ydpi="90"
       inkscape:export-xdpi="90"
       inkscape:export-filename="C:\www\server\flash\next.png"
       transform="matrix(-1.0018521,0,0,-1,349.14137,19.999997)"
       id="g2846"
       style="fill:#e6e6e6">
      <rect
         y="25"
         x="263.55756"
         height="50"
         width="10"
         id="rect2848"
         style="fill:#e6e6e6;fill-opacity:1;stroke:none"
         ry="5"
         rx="5" />
      <path
         sodipodi:type="star"
         style="fill:#e6e6e6;fill-opacity:1;stroke:none"
         id="path2850"
         sodipodi:sides="3"
         sodipodi:cx="252.11807"
         sodipodi:cy="1015.6689"
         sodipodi:r1="29.591324"
         sodipodi:r2="14.795662"
         sodipodi:arg1="0"
         sodipodi:arg2="1.0471976"
         inkscape:flatsided="true"
         inkscape:rounded="0.09"
         inkscape:randomized="0"
         d="m 281.7094,1015.6689 c 0,4.6128 -40.39216,27.9332 -44.38699,25.6268 -3.99483,-2.3064 -3.99483,-48.94724 0,-51.25365 3.99483,-2.30642 44.38699,21.01405 44.38699,25.62685 z"
         transform="matrix(0.4477871,0,0,0.9694876,118.7217,-934.67839)" />
      <path
         transform="matrix(0.447787,0,0,0.9694876,138.72173,-934.67839)"
         d="m 281.7094,1015.6689 c 0,4.6128 -40.39216,27.9332 -44.38699,25.6268 -3.99483,-2.3064 -3.99483,-48.94724 0,-51.25365 3.99483,-2.30642 44.38699,21.01405 44.38699,25.62685 z"
         inkscape:randomized="0"
         inkscape:rounded="0.09"
         inkscape:flatsided="true"
         sodipodi:arg2="1.0471976"
         sodipodi:arg1="0"
         sodipodi:r2="14.795662"
         sodipodi:r1="29.591324"
         sodipodi:cy="1015.6689"
         sodipodi:cx="252.11807"
         sodipodi:sides="3"
         id="path2852"
         style="fill:#e6e6e6;fill-opacity:1;stroke:none"
         sodipodi:type="star" />
    </g>
    <g
       id="g2854"
       transform="matrix(0,-1.0018521,1,0,-9.9228415,219.06421)"
       inkscape:export-filename="C:\www\server\flash\next.png"
       inkscape:export-xdpi="90"
       inkscape:export-ydpi="90"
       style="fill:#e6e6e6">
      <rect
         rx="5"
         ry="5"
         style="fill:#e6e6e6;fill-opacity:1;stroke:none"
         id="rect2856"
         width="10"
         height="50"
         x="229.62033"
         y="25" />
      <path
         sodipodi:type="star"
         style="fill:#e6e6e6;fill-opacity:1;stroke:none"
         id="path2860"
         sodipodi:sides="3"
         sodipodi:cx="252.11807"
         sodipodi:cy="1015.6689"
         sodipodi:r1="29.591324"
         sodipodi:r2="14.795662"
         sodipodi:arg1="0"
         sodipodi:arg2="1.0471976"
         inkscape:flatsided="true"
         inkscape:rounded="0.09"
         inkscape:randomized="0"
         d="m 281.7094,1015.6689 c 0,4.6128 -40.39216,27.9332 -44.38699,25.6268 -3.99483,-2.3064 -3.99483,-48.94724 0,-51.25365 3.99483,-2.30642 44.38699,21.01405 44.38699,25.62685 z"
         transform="matrix(0.55950396,0,0,0.9694876,111.24261,-934.67839)" />
    </g>
    <g
       id="g2908"
       style="fill:#e6e6e6"
       transform="translate(0,-70)">
      <rect
         style="fill:#e6e6e6;fill-opacity:1;stroke:none"
         id="rect2868"
         width="14.818033"
         height="22.227034"
         x="496.57715"
         y="28.886484"
         ry="2.2227032"
         rx="1.4818033"
         inkscape:export-filename="C:\www\server\flash\stop.png"
         inkscape:export-xdpi="90"
         inkscape:export-ydpi="90" />
      <path
         transform="matrix(-0.44542369,0,0,0.9694876,625.37525,-944.67839)"
         d="m 281.7094,1015.6689 c 0,4.6128 -40.39216,27.9332 -44.38699,25.6268 -3.99483,-2.3064 -3.99483,-48.94724 0,-51.25365 3.99483,-2.30642 44.38699,21.01405 44.38699,25.62685 z"
         inkscape:randomized="0"
         inkscape:rounded="0.09"
         inkscape:flatsided="true"
         sodipodi:arg2="1.0471976"
         sodipodi:arg1="0"
         sodipodi:r2="14.795662"
         sodipodi:r1="29.591324"
         sodipodi:cy="1015.6689"
         sodipodi:cx="252.11807"
         sodipodi:sides="3"
         id="path2872"
         style="fill:#e6e6e6;fill-opacity:1;stroke:none"
         sodipodi:type="star" />
      <rect
         transform="matrix(0,1,-1,0,0,0)"
         style="fill:#e6e6e6;fill-opacity:1;stroke:none"
         id="rect2882"
         width="5.0999999"
         height="17"
         x="39.200001"
         y="-543.57715"
         ry="1.7" />
    </g>
    <g
       id="g2902"
       style="fill:#e6e6e6"
       transform="translate(0,-70)">
      <rect
         inkscape:export-ydpi="90"
         inkscape:export-xdpi="90"
         inkscape:export-filename="C:\www\server\flash\stop.png"
         rx="1.4818033"
         ry="2.2227032"
         y="28.886484"
         x="556.57715"
         height="22.227034"
         width="14.818033"
         id="rect2894"
         style="fill:#e6e6e6;fill-opacity:1;stroke:none" />
      <path
         sodipodi:type="star"
         style="fill:#e6e6e6;fill-opacity:1;stroke:none"
         id="path2896"
         sodipodi:sides="3"
         sodipodi:cx="252.11807"
         sodipodi:cy="1015.6689"
         sodipodi:r1="29.591324"
         sodipodi:r2="14.795662"
         sodipodi:arg1="0"
         sodipodi:arg2="1.0471976"
         inkscape:flatsided="true"
         inkscape:rounded="0.09"
         inkscape:randomized="0"
         d="m 281.7094,1015.6689 c 0,4.6128 -40.39216,27.9332 -44.38699,25.6268 -3.99483,-2.3064 -3.99483,-48.94724 0,-51.25365 3.99483,-2.30642 44.38699,21.01405 44.38699,25.62685 z"
         transform="matrix(-0.44542369,0,0,0.9694876,685.37525,-944.67839)" />
      <rect
         ry="1.7"
         style="fill:#e6e6e6;fill-opacity:1;stroke:none"
         id="rect2898"
         width="5.0999999"
         height="17"
         x="592.52716"
         y="33.25" />
      <rect
         ry="1.7"
         y="-603.57715"
         x="39.200001"
         height="17"
         width="5.0999999"
         id="rect2900"
         style="fill:#e6e6e6;fill-opacity:1;stroke:none"
         transform="matrix(0,1,-1,0,0,0)" />
    </g>
    <g
       id="g3012"
       style="fill:#e6e6e6"
       transform="translate(60.000028,-70)">
      <rect
         transform="matrix(1,0,0.40098447,0.91608485,0,0)"
         style="fill:#e6e6e6;fill-opacity:1;stroke:none"
         id="rect2923"
         width="11.88257"
         height="43.664074"
         x="620.15259"
         y="27.290049"
         ry="4.3664074" />
      <rect
         transform="matrix(0,1,-1,0,0,0)"
         ry="3.1686854"
         style="fill:#e6e6e6;fill-opacity:1;stroke:none"
         id="rect2927"
         width="8"
         height="31.686855"
         x="47.799999"
         y="-652.12842" />
      <rect
         ry="4.3664074"
         y="27.290049"
         x="-654.00177"
         height="43.664078"
         width="11.88257"
         id="rect2929"
         style="fill:#e6e6e6;fill-opacity:1;stroke:none"
         transform="matrix(-1,0,-0.40098447,0.91608485,0,0)" />
      <rect
         transform="matrix(0,1,-1,0,0,0)"
         style="fill:#e6e6e6;fill-opacity:1;stroke:none"
         id="rect2900-5"
         width="5.0999999"
         height="17"
         x="20.949995"
         y="-665.07715"
         ry="1.7" />
    </g>
    <g
       id="g3019"
       transform="translate(120.00006,-70)"
       style="fill:#e6e6e6">
      <rect
         ry="4.3664074"
         y="27.290049"
         x="620.15259"
         height="43.664074"
         width="11.88257"
         id="rect3021"
         style="fill:#e6e6e6;fill-opacity:1;stroke:none"
         transform="matrix(1,0,0.40098447,0.91608485,0,0)" />
      <rect
         y="-652.12842"
         x="47.799999"
         height="31.686855"
         width="8"
         id="rect3023"
         style="fill:#e6e6e6;fill-opacity:1;stroke:none"
         ry="3.1686854"
         transform="matrix(0,1,-1,0,0,0)" />
      <rect
         transform="matrix(-1,0,-0.40098447,0.91608485,0,0)"
         style="fill:#e6e6e6;fill-opacity:1;stroke:none"
         id="rect3025"
         width="11.88257"
         height="43.664078"
         x="-654.00177"
         y="27.290049"
         ry="4.3664074" />
      <rect
         ry="1.7"
         style="fill:#e6e6e6;fill-opacity:1;stroke:none"
         id="rect3027"
         width="5.0999999"
         height="17"
         x="654.02716"
         y="14.999999" />
      <rect
         ry="1.7"
         y="-665.07715"
         x="20.949995"
         height="17"
         width="5.0999999"
         id="rect3029"
         style="fill:#e6e6e6;fill-opacity:1;stroke:none"
         transform="matrix(0,1,-1,0,0,0)" />
    </g>
    <g
       id="g3001">
      <rect
         style="fill:#e6e6e6;fill-opacity:1;stroke:none"
         id="rect3035"
         width="14.818033"
         height="22.227034"
         x="616.57715"
         y="-41.113518"
         ry="2.2227032"
         rx="1.4818033"
         inkscape:export-filename="C:\www\server\flash\stop.png"
         inkscape:export-xdpi="90"
         inkscape:export-ydpi="90" />
      <path
         transform="matrix(-0.44542369,0,0,0.9694876,745.37526,-1014.6784)"
         d="m 281.7094,1015.6689 c 0,4.6128 -40.39216,27.9332 -44.38699,25.6268 -3.99483,-2.3064 -3.99483,-48.94724 0,-51.25365 3.99483,-2.30642 44.38699,21.01405 44.38699,25.62685 z"
         inkscape:randomized="0"
         inkscape:rounded="0.09"
         inkscape:flatsided="true"
         sodipodi:arg2="1.0471976"
         sodipodi:arg1="0"
         sodipodi:r2="14.795662"
         sodipodi:r1="29.591324"
         sodipodi:cy="1015.6689"
         sodipodi:cx="252.11807"
         sodipodi:sides="3"
         id="path3037"
         style="fill:#e6e6e6;fill-opacity:1;stroke:none"
         sodipodi:type="star" />
      <rect
         ry="2.1888266"
         y="22.733557"
         x="-675.9845"
         height="21.888271"
         width="7.5556669"
         id="rect2929-5"
         style="fill:#e6e6e6;fill-opacity:1;stroke:none"
         transform="matrix(-1,0,-0.50863094,-0.86098465,0,0)" />
      <rect
         transform="matrix(1,0,0.50863094,-0.86098465,0,0)"
         style="fill:#e6e6e6;fill-opacity:1;stroke:none"
         id="rect3065"
         width="7.5556669"
         height="21.888271"
         x="634.16986"
         y="22.733557"
         ry="2.1888266" />
    </g>
    <path
       style="font-size:144px;font-style:normal;font-variant:normal;font-weight:bold;font-stretch:normal;text-align:start;line-height:125%;writing-mode:lr-tb;text-anchor:start;fill:#e6e6e6;fill-opacity:1;stroke:none;font-family:FreeSans;-inkscape-font-specification:Bitstream Charter Bold"
       d="m 468.0625,10 c -0.22445,0.03772 -0.4702,0.186623 -0.75,0.4375 -3.83068,1.49946 -7.92101,2.0695 -11.96875,2.65625 -2.00928,5.4968 2.38517,5.06835 3.71875,7.78125 l 0,38.0625 c 6.92513,3.59554 16.08336,7.26785 22.96875,1.5 8.0809,-5.06053 12.70018,-15.75423 8.1875,-24.75 -2.80943,-7.69469 -12.7662,-8.61486 -18.78125,-4.4375 -0.65523,-6.29906 1.30064,-13.76479 -0.96875,-19.34375 C 469.56708,11.386705 469.03511,9.8365519 468.0625,10 z m -141.21875,8.40625 c -0.53255,0.0028 -1.06389,0.01311 -1.59375,0.03125 -5.76918,0.2163 -11.4469,0.860631 -17.0625,2.125 -0.72137,-1.466862 -2.34335,-2.337387 -4.8125,-1.21875 -4.55791,1.20163 -14.94008,-2.48819 -16.09375,2 -1.15631,3.91863 1.16197,4.57936 4.1875,5.34375 -0.27203,9.52095 0.55782,19.74529 -0.34375,28.84375 -2.10243,-0.04279 -3.34628,0.979931 -3.84375,2.28125 -0.40884,-0.845306 -1.25856,-1.573321 -2.65625,-1.9375 -4.62124,-0.85133 -0.619,-8.28684 -2.03125,-11.5625 0.30374,-5.89664 -0.84134,-12.99155 0.3125,-18.1875 4.72504,1.57692 5.11494,-8.30448 0.40625,-6.78125 -4.6089,0.78524 -12.53003,-2.5823 -14.1875,3.8125 l -9.6875,21.28125 c -4.13727,-7.97369 -6.38888,-17.1878 -11.46875,-24.53125 -4.87244,-1.55647 -10.31722,-0.03339 -15.375,-0.5625 l 0,1 0,1 c -2.23702,6.60557 7.15737,2.49363 4.15625,9.9375 -0.33713,7.99893 0.28354,16.63497 -0.625,24.25 -6.10069,-0.63907 -5.22541,10.10305 1.125,7.125 5.20879,-0.71894 14.76297,2.90976 12.21875,-5.59375 -1.97963,-1.29964 -6.24873,-1.11939 -4.15625,-5.65625 -0.30105,-7.82273 -0.0829,-13.15326 3.34375,-2.8125 2.81442,4.20119 3.39713,11.88914 7.5,14.0625 6.97647,2.11763 6.7438,-6.98915 9.71875,-11.125 2.55639,-5.61364 5.97072,-15.17517 4.875,-3.5 2.06193,6.04811 -1.63234,7.807 -4.4375,10.03125 -1.93439,8.13039 9.03355,3.29815 13.90625,4.59375 3.3139,1.685043 6.1236,0.02891 7.03125,-2.09375 0.64314,2.094321 2.7807,3.705367 6,2.09375 4.2852,-1.305957 13.69689,2.519057 14.96875,-1.8125 0.74451,1.953854 2.83129,3.351856 5.90625,1.8125 10.38193,-0.0595 23.64551,2.0663 30.84375,-7.28125 8.16336,-10.54582 6.64984,-30.19686 -7.15625,-35.1875 -3.46303,-1.400823 -7.24088,-1.800802 -10.96875,-1.78125 z m 60.59375,0.375 c -0.60299,0.0082 -1.30756,0.1678 -2.0625,0.5625 -3.74458,1.039175 -12.18358,-1.750759 -14.34375,0.9375 -0.786,-1.284176 -2.32464,-1.979666 -4.625,-0.9375 -4.55791,1.20163 -14.94008,-2.48819 -16.09375,2 -1.15631,3.91863 1.16197,4.57936 4.1875,5.34375 -0.27202,9.52095 0.52658,19.74529 -0.375,28.84375 -6.72778,-0.13694 -4.5423,10.47836 2.15625,7.125 4.62468,-1.40942 15.20119,3.1608 15.09375,-3 2.1706,-4.5908 -4.06504,-2.41335 -4.1875,-5.28125 0.25885,-9.1755 -0.49546,-19.11771 0.34375,-27.84375 1.60413,0.144242 2.70954,-0.541907 3.375,-1.53125 1.49803,1.021372 4.44507,0.890571 4.5,3.625 2.67595,11.7907 5.37513,23.57981 8.03125,35.375 4.67636,-0.41858 9.3401,-2.92606 9.6875,-8.25 2.05342,-4.28123 4.05984,-14.01289 6.15625,-15.125 3.04419,7.76874 6.02119,15.55509 9.09375,23.3125 4.60357,-0.37855 9.10495,-3.27663 8.65625,-8.59375 2.4053,-9.46 3.58829,-19.91458 6.71875,-28.78125 5.79301,1.14375 6.3671,-9.39984 0.3125,-7.21875 -4.64582,1.38819 -15.5095,-3.47443 -14.09375,4 2.64507,3.15291 6.50146,4.24538 2.875,10.96875 -0.86566,11.54176 -3.57884,-0.13365 -5.75,-4.9375 -2.20811,-4.93093 -2.65321,-12.51001 -9.875,-10.03125 -3.11201,6.02919 -4.81294,13.95319 -7.40625,20.6875 -0.67239,-4.46711 -3.10415,-9.96025 -2.84375,-13.875 5.05872,0.747075 4.68966,-7.432316 0.46875,-7.375 z m -79.59375,6.28125 c 1.58118,2.970777 6.13564,1.979869 4.53125,8.09375 -0.29281,7.35408 0.55464,15.44831 -0.375,22.375 -1.71698,-0.03495 -2.86976,0.640088 -3.5,1.59375 -1.02405,-1.220139 -4.25596,-0.694026 -4.34375,-2.75 0.25885,-9.1755 -0.49546,-19.11771 0.34375,-27.84375 1.57325,0.141465 2.67366,-0.510967 3.34375,-1.46875 z M 326.5,25.90625 c 6.77347,0.205349 10.57075,7.631281 10.03125,13.90625 0.83498,6.68154 -3.32615,16.8965 -11.46875,15.09375 -0.0317,-9.62435 -0.0924,-19.41321 0.0312,-28.9375 0.47752,-0.05302 0.95469,-0.07619 1.40625,-0.0625 z M 443.46875,28.625 c -0.55959,0.01196 -1.1426,0.07365 -1.71875,0.15625 -11.27424,0.72736 -18.88426,13.4033 -14.96875,23.96875 2.77514,11.05744 17.77449,14.26395 25.75,6.875 2.62183,-2.18315 6.82838,-4.72129 3.21875,-7.75 -3.12348,-4.13203 -6.85278,2.68522 -11,2.09375 -3.361,0.68689 -5.7723,-2.61608 -5.96875,-5.65625 6.34538,-0.20848 13.91233,1.62177 18.59375,-3.875 0.82728,-8.44305 -5.51234,-15.991921 -13.90625,-15.8125 z m -1.59375,7.96875 c 2.86417,-0.3739 4.99324,5.97511 0.28125,3.96875 -5.25228,2.08349 -3.08221,-3.9872 -0.28125,-3.96875 z m 33.6875,1.875 c 5.52662,0.71956 4.94836,8.936 4.0625,12.90625 -0.99148,4.61598 -9.94531,2.63639 -8.1875,-1.9375 0.77708,-3.57504 -2.2942,-10.21663 2.84375,-10.71875 0.40264,-0.17612 0.84938,-0.22598 1.28125,-0.25 z M 120,50 l 0,0.84375 0,0.875 0,95.3125 29.0625,0 c 0.12487,-10.75841 -0.24475,-21.69679 0.1875,-32.34375 2.32435,-1.41094 4.07293,-5.44038 6.78125,-5.5625 9.63375,13.05829 21.18961,25.18976 31.53125,37.90625 l 35.25,0 c -0.58273,-0.65709 -1.16728,-1.31165 -1.75,-1.96875 2.84358,2.04351 6.24929,3.51661 10.125,4.125 9.74553,2.40331 20.7085,-1.10434 28.28125,-5.34375 2.1087,4.07002 7.56198,3.62654 11.71875,3.1875 l 17.75,0 c 2.89869,-4.64286 -1.79186,-8.54373 -3.9375,-12.34375 -1.07403,-15.56383 1.73698,-31.58527 -1.46875,-47.03125 C 278.89692,75.88196 263.2387,71.74479 250.1875,72.25 c -0.7977,-0.007 -1.57783,0.004 -2.375,0.03125 C 232.86226,71.7078 216.23313,79.578 214,93.375 c -0.67107,2.92383 -0.93743,5.89093 -1.09375,8.875 7.19196,0.0359 15.7449,-0.0638 22.09375,0.0625 -11.0863,1.78442 -21.49992,8.70603 -23.0625,18.84375 -1.33833,5.41354 -0.43534,11.25391 2.3125,16.21875 C 200.98458,122.41438 187.73379,107.46087 174.46875,92.5 189.46328,78.33612 204.44549,64.16592 219.4375,50 L 183.625,50 C 172.09208,61.29892 160.57732,72.62441 149.0625,83.9375 L 149.0625,50 120,50 z m 390.34375,0 0,0.84375 0,0.875 0,95.3125 27.5625,0 c 0.97479,-8.52017 -1.63439,-17.62092 1.3125,-25.78125 1.87607,-3.66926 3.79598,1.62756 4.65625,2.96875 4.48693,7.67653 9.37848,15.19021 14,22.8125 l 32.375,0 C 580.23927,132.21607 570.30725,117.35556 560.375,102.5 c 10.00518,-9.71034 20.03236,-19.38128 30,-29.125 l -33.15625,0 c -6.40461,6.67631 -12.8329,13.33282 -19.25,20 l 0,-43.375 -27.625,0 z m -171.6875,22.15625 c -6.26921,0.03891 -12.72342,2.70085 -17,5.875 -0.85552,-5.57612 -8.39244,-5.64288 -13.1875,-4.40625 -4.63617,0.1094 -12.82641,-2.53629 -14.625,2.90625 -0.2909,23.43039 -0.0397,47.0161 -0.125,70.5 l 27.59375,0 c 0.8023,-15.03153 -1.4587,-30.39142 1.125,-45.21875 3.34475,-6.30094 13.25111,-6.25675 19.875,-4.71875 0.19852,-0.156421 0.35735,-0.336569 0.53125,-0.5 -0.2609,1.881232 -0.40041,3.75515 -0.5,5.65625 7.19195,0.0359 15.7449,-0.0638 22.09375,0.0625 -11.0863,1.78442 -21.49992,8.70603 -23.0625,18.84375 -2.93188,11.85944 4.92018,25.78181 19.25,28.03125 9.74553,2.40331 20.70849,-1.10434 28.28125,-5.34375 2.1087,4.07002 7.56197,3.62654 11.71875,3.1875 l 17.75,0 c 2.89869,-4.64286 -1.79186,-8.54373 -3.9375,-12.34375 -1.07404,-15.56383 1.73698,-31.58527 -1.46875,-47.03125 C 408.33441,75.88196 392.67619,71.74479 379.625,72.25 c -0.7977,-0.007 -1.57784,0.004 -2.375,0.03125 -12.92913,-0.495926 -27.11206,5.335321 -32.15625,15.84375 -0.25863,-2.707304 -0.74655,-5.502079 -0.15625,-7.96875 0.57246,-3.24913 0.27501,-8.5055 -5.03125,-8 -0.41565,-0.02139 -0.83205,-0.0026 -1.25,0 z m 124.65625,0.0625 c -0.76551,-2.33e-4 -1.51773,0.02756 -2.28125,0.0625 -19.70815,-0.81515 -38.18977,13.17944 -39.75,30.53125 -3.34534,16.45858 3.08225,36.7104 21.90625,43.71875 19.51563,7.83089 47.25307,2.40603 56.1875,-15.9375 7.47666,-14.78778 6.13436,-33.81262 -5.46875,-46.71875 C 486.37979,76.184116 474.79513,72.222244 463.3125,72.21875 z M 617.40625,72.25 c -18.3192,0.263305 -33.85828,14.309639 -35.5,30.03125 -3.36266,16.04999 1.36513,35.93279 19.09375,43.875 20.19201,9.20351 49.35136,1.38724 57.15625,-18.0625 2.7804,-2.82899 0.44159,-7.25634 -3.90625,-6.84375 -5.73199,0.33728 -11.4096,0.21242 -17.125,-0.0937 -5.91131,8.4e-4 -5.86128,6.95903 -11.375,7.90625 -6.72813,2.65705 -16.0149,-0.55787 -16.5,-7.59375 -1.94176,-5.10231 8.1853,-1.14355 11.375,-2.375 l 38.875,0 c 2.20338,-15.89418 -2.78325,-35.23698 -20.375,-42.90625 -6.04347,-2.9459 -13.04963,-4.05812 -19.9375,-3.90625 -0.59634,-0.02059 -1.19031,-0.03974 -1.78125,-0.03125 z m 2.96875,20 c 5.36703,-0.113205 9.6109,4.176931 10.53125,8.46875 -7.04902,-0.0546 -14.44921,0.0953 -21.28125,-0.0937 1.04206,-3.98811 4.37132,-8.44022 9.65625,-8.28125 0.36711,-0.04788 0.73595,-0.0862 1.09375,-0.09375 z m -368.75,0.71875 c 3.43929,0.02795 8.00595,2.107941 5.21875,5.21875 -4.98142,2.76193 -11.38948,2.13523 -16.96875,3.28125 -0.67978,-3.98673 2.12276,-9.01819 7.46875,-8.25 0.95991,-0.0583 1.912,-0.12154 2.875,-0.125 0.41936,-0.08263 0.91492,-0.128993 1.40625,-0.125 z m 129.40625,0 c 3.43929,0.02795 8.0372,2.107941 5.25,5.21875 -4.98143,2.76193 -11.38948,2.13523 -16.96875,3.28125 -0.69277,-3.99033 2.14024,-9.01619 7.46875,-8.25 0.95992,-0.0583 1.91201,-0.12154 2.875,-0.125 0.41936,-0.08263 0.88367,-0.128993 1.375,-0.125 z m 80.46875,0.125 c 10.74386,-0.60858 15.44261,10.70389 14.78125,18.5 0.6378,7.99453 -5.46646,18.99315 -16.125,17.28125 -10.78108,-2.12596 -13.0462,-13.82924 -11.65625,-22 0.66174,-6.0576 5.01754,-13.61983 13,-13.78125 z M 257.6875,116.875 c 1.24208,6.73243 -5.52171,13.59287 -13.5,12.21875 -5.54164,-0.21016 -7.27077,-7.47284 -1.75,-9.15625 4.64574,-2.10279 10.4033,-1.56039 15.25,-3.0625 z m 129.4375,0 c 1.34507,7.00029 -6.06409,13.93232 -14.21875,12.125 -5.8771,-0.91431 -5.7891,-8.51839 0.0312,-9.5625 4.54567,-1.46151 9.66197,-1.22489 14.1875,-2.5625 z"
       transform="translate(10.077162,-225)"
       id="path3072"
       inkscape:connector-curvature="0" />
    <path
       style="fill:#e6e6e6;fill-opacity:0.2;stroke:none"
       d="m 629.0625,240.03125 c -1.99338,0.38088 -8.12062,7.2794 -12.9375,13.84375 l -8.15625,0 c -0.82092,0 -1.46875,0.98737 -1.46875,2.21875 l 0,17.8125 c 0,1.23138 0.64783,2.21875 1.46875,2.21875 l 8.15625,0 c 5.3715,7.32017 12.39166,15.07226 13.46875,13.71875 1.77939,-2.23604 1.77939,-47.45146 0,-49.6875 -0.11121,-0.13975 -0.30173,-0.16885 -0.53125,-0.125 z m 8.78125,16.5625 c -1.21261,0 -1.67927,0.83096 -1.0625,1.875 L 641.25,266 l -4.46875,7.53125 c -0.61677,1.04404 -0.15011,1.90625 1.0625,1.90625 l 3.1875,0 c 1.21261,0 2.66448,-0.86221 3.28125,-1.90625 L 645,272.375 l 0.6875,1.15625 c 0.61677,1.04404 2.06864,1.90625 3.28125,1.90625 l 3.1875,0 c 1.21261,0 1.67927,-0.86221 1.0625,-1.90625 L 648.75,266 l 4.46875,-7.53125 c 0.61677,-1.04404 0.15011,-1.875 -1.0625,-1.875 l -3.1875,0 c -1.21261,0 -2.66448,0.83096 -3.28125,1.875 L 645,259.625 l -0.6875,-1.15625 c -0.61677,-1.04404 -2.06864,-1.875 -3.28125,-1.875 l -3.1875,0 z"
       transform="translate(10.077162,-225)"
       id="rect2977"
       inkscape:connector-curvature="0" />
    <path
       inkscape:export-ydpi="90"
       inkscape:export-xdpi="90"
       inkscape:export-filename="C:\www\server\flash\play.png"
       transform="matrix(0.97081012,0,0,0.9694876,-30.409171,-944.6784)"
       d="m 281.7094,1015.6689 c 0,4.6128 -40.39216,27.9332 -44.38699,25.6268 -3.99483,-2.3064 -3.99483,-48.94724 0,-51.25365 3.99483,-2.30642 44.38699,21.01405 44.38699,25.62685 z"
       inkscape:randomized="3.1225023e-17"
       inkscape:rounded="0.09"
       inkscape:flatsided="true"
       sodipodi:arg2="1.0471976"
       sodipodi:arg1="0"
       sodipodi:r2="15.979315"
       sodipodi:r1="29.591324"
       sodipodi:cy="1015.6689"
       sodipodi:cx="252.11807"
       sodipodi:sides="3"
       id="path2892"
       style="fill:#e6e6e6;fill-opacity:0.2;stroke:none"
       sodipodi:type="star" />
    <rect
       inkscape:export-ydpi="90"
       inkscape:export-xdpi="90"
       inkscape:export-filename="C:\www\server\flash\stop.png"
       rx="5"
       ry="5"
       y="15"
       x="315.07715"
       height="50"
       width="50"
       id="rect2895"
       style="fill:#e6e6e6;fill-opacity:0.2;stroke:none" />
    <path
       style="fill:#e6e6e6;fill-opacity:0.2;stroke:none"
       d="m 255,240 c -2.77,0 -5,2.23 -5,5 l 0,40 c 0,2.77 2.23,5 5,5 l 5,0 c 2.77,0 5,-2.23 5,-5 l 0,-40 c 0,-2.77 -2.23,-5 -5,-5 l -5,0 z m 25,0 c -2.77,0 -5,2.23 -5,5 l 0,40 c 0,2.77 2.23,5 5,5 l 5,0 c 2.77,0 5,-2.23 5,-5 l 0,-40 c 0,-2.77 -2.23,-5 -5,-5 l -5,0 z"
       transform="translate(10.077162,-225)"
       id="rect2899"
       inkscape:connector-curvature="0" />
    <path
       style="fill:#e6e6e6;fill-opacity:0.2;stroke:none"
       d="m 372.0625,240.03125 c -0.0862,0.0227 -0.16314,0.0551 -0.21875,0.125 -1.77939,2.23604 -1.77939,47.45146 0,49.6875 1.50657,1.8932 14.60335,-13.98522 18.59375,-21.625 0.0745,10.68541 0.47367,20.61017 1.28125,21.625 C 393.49814,292.07979 411.5,269.47208 411.5,265 c 0,-4.47208 -18.00186,-27.07979 -19.78125,-24.84375 -0.80758,1.01483 -1.20671,10.93959 -1.28125,21.625 -3.84312,-7.3578 -16.12503,-22.34135 -18.375,-21.75 z"
       transform="translate(10.077162,-225)"
       id="path2905"
       inkscape:connector-curvature="0" />
    <path
       style="fill:#e6e6e6;fill-opacity:0.2;stroke:none"
       d="m 470,240 c -2.77513,0 -5.03125,2.23 -5.03125,5 l 0,16.53125 c -4.17182,-7.73229 -17.09299,-23.24748 -18.59375,-21.375 -0.81417,1.01584 -1.23809,10.95865 -1.3125,21.65625 -4.00385,-7.63037 -17.19979,-23.55144 -18.71875,-21.65625 -1.79215,2.23604 -1.79215,47.45146 0,49.6875 1.51896,1.89519 14.7149,-14.02588 18.71875,-21.65625 0.0744,10.6976 0.49833,20.64041 1.3125,21.65625 1.50076,1.87248 14.42193,-13.64271 18.59375,-21.375 l 0,16.53125 c 0,2.77 2.25612,5 5.03125,5 2.77513,0 5,-2.23 5,-5 l 0,-40 c 0,-2.77 -2.22487,-5 -5,-5 z"
       transform="translate(10.077162,-225)"
       id="rect2911"
       inkscape:connector-curvature="0" />
    <path
       style="fill:#e6e6e6;fill-opacity:0.2;stroke:none"
       d="M 148.75,240.03125 C 145.30721,240.68907 129.5,260.80742 129.5,265 c 0,4.47208 18.00186,27.07979 19.78125,24.84375 0.80758,-1.01483 1.20671,-10.93959 1.28125,-21.625 3.9904,7.63978 17.08718,23.5182 18.59375,21.625 1.77939,-2.23604 1.77939,-47.45146 0,-49.6875 -1.50657,-1.8932 -14.60335,13.98522 -18.59375,21.625 -0.0745,-10.68541 -0.47367,-20.61017 -1.28125,-21.625 -0.11121,-0.13975 -0.30173,-0.16885 -0.53125,-0.125 z"
       transform="translate(10.077162,-225)"
       id="path2919"
       inkscape:connector-curvature="0" />
    <path
       style="fill:#e6e6e6;fill-opacity:0.2;stroke:none"
       d="m 70,240 c -2.77513,0 -5,2.23 -5,5 l 0,40 c 0,2.77 2.22487,5 5,5 2.77513,0 5.03125,-2.23 5.03125,-5 l 0,-16.53125 c 4.171817,7.73229 17.092993,23.24748 18.59375,21.375 0.814174,-1.01584 1.238087,-10.95865 1.3125,-21.65625 4.00385,7.63037 17.19979,23.55144 18.71875,21.65625 1.79215,-2.23604 1.79215,-47.45146 0,-49.6875 -1.51896,-1.89519 -14.7149,14.02588 -18.71875,21.65625 -0.07441,-10.6976 -0.498326,-20.64041 -1.3125,-21.65625 -1.500757,-1.87248 -14.421933,13.64271 -18.59375,21.375 l 0,-16.53125 c 0,-2.77 -2.25612,-5 -5.03125,-5 z"
       transform="translate(10.077162,-225)"
       id="rect2925"
       inkscape:connector-curvature="0" />
    <path
       style="fill:#e6e6e6;fill-opacity:0.2;stroke:none"
       d="m 30,244.71875 c -4.472082,0 -27.0797912,22.63574 -24.84375,24.875 2.2360412,2.23926 47.451459,2.23926 49.6875,0 C 57.079791,267.35449 34.472082,244.71875 30,244.71875 z M 10,274 c -2.77,0 -5,2.22487 -5,5 0,2.77513 2.23,5.03125 5,5.03125 l 40,0 c 2.77,0 5,-2.25612 5,-5.03125 0,-2.77513 -2.23,-5 -5,-5 l -40,0 z"
       transform="translate(10.077162,-225)"
       id="rect2933"
       inkscape:connector-curvature="0" />
    <path
       style="fill:#e6e6e6;fill-opacity:0.2;stroke:none"
       d="m 509.0625,240.03125 c -1.99338,0.38088 -8.12062,7.2794 -12.9375,13.84375 l -8.15625,0 c -0.82092,0 -1.46875,0.98737 -1.46875,2.21875 l 0,17.8125 c 0,1.23138 0.64783,2.21875 1.46875,2.21875 l 8.15625,0 c 5.3715,7.32017 12.39166,15.07226 13.46875,13.71875 1.77939,-2.23604 1.77939,-47.45146 0,-49.6875 -0.11121,-0.13975 -0.30173,-0.16885 -0.53125,-0.125 z m 9.125,24.15625 c -0.9418,0 -1.6875,0.77695 -1.6875,1.71875 l 0,1.6875 c 0,0.9418 0.7457,1.71875 1.6875,1.71875 l 13.625,0 c 0.9418,0 1.6875,-0.77695 1.6875,-1.71875 l 0,-1.6875 c 0,-0.9418 -0.7457,-1.71875 -1.6875,-1.71875 l -13.625,0 z"
       transform="translate(10.077162,-225)"
       id="rect2939"
       inkscape:connector-curvature="0" />
    <path
       style="fill:#e6e6e6;fill-opacity:0.2;stroke:none"
       d="m 569.0625,240.03125 c -1.99338,0.38088 -8.12062,7.2794 -12.9375,13.84375 l -8.15625,0 c -0.82092,0 -1.46875,0.98737 -1.46875,2.21875 l 0,17.8125 c 0,1.23138 0.64783,2.21875 1.46875,2.21875 l 8.15625,0 c 5.3715,7.32017 12.39166,15.07226 13.46875,13.71875 1.77939,-2.23604 1.77939,-47.45146 0,-49.6875 -0.11121,-0.13975 -0.30173,-0.16885 -0.53125,-0.125 z M 584.15625,258.25 c -0.9418,0 -1.71875,0.7457 -1.71875,1.6875 l 0,4.25 -4.25,0 c -0.9418,0 -1.6875,0.77695 -1.6875,1.71875 l 0,1.6875 c 0,0.9418 0.7457,1.71875 1.6875,1.71875 l 4.25,0 0,4.25 c 0,0.9418 0.77695,1.6875 1.71875,1.6875 l 1.6875,0 c 0.9418,0 1.71875,-0.7457 1.71875,-1.6875 l 0,-4.25 4.25,0 c 0.9418,0 1.6875,-0.77695 1.6875,-1.71875 l 0,-1.6875 c 0,-0.9418 -0.7457,-1.71875 -1.6875,-1.71875 l -4.25,0 0,-4.25 c 0,-0.9418 -0.77695,-1.6875 -1.71875,-1.6875 l -1.6875,0 z"
       transform="translate(10.077162,-225)"
       id="rect2947"
       inkscape:connector-curvature="0" />
    <path
       style="fill:#e6e6e6;fill-opacity:0.2;stroke:none"
       d="m 699.6875,245.9375 c -0.9418,0 -1.6875,0.77695 -1.6875,1.71875 l 0,1.6875 c 0,0.9418 0.7457,1.71875 1.6875,1.71875 l 13.625,0 c 0.9418,0 1.6875,-0.77695 1.6875,-1.71875 l 0,-1.6875 c 0,-0.9418 -0.7457,-1.71875 -1.6875,-1.71875 l -13.625,0 z M 685.375,250 c -0.34213,0 -0.64798,0.0574 -0.9375,0.125 -2.11576,0.41071 -4.26125,1.97307 -5.09375,3.875 l -14,32 c -0.96998,2.216 0.20601,4 2.625,4 l 3.125,0 c 2.41899,0 5.15502,-1.784 6.125,-4 l 2.28125,-5.1875 15,0 2.28125,5.1875 c 0.96998,2.216 3.70601,4 6.125,4 l 3.125,0 c 2.41899,0 3.59498,-1.784 2.625,-4 l -14,-32 c -0.8325,-1.90193 -2.97799,-3.46429 -5.09375,-3.875 -0.0315,-0.006 -0.0623,-0.0257 -0.0937,-0.0312 -0.01,-0.002 -0.0216,0.002 -0.0312,0 -0.27648,-0.0477 -0.54023,-0.0887 -0.8125,-0.0937 l -0.0937,0 -3.15625,0 z m 1.625,13.65625 4,9.15625 -8,0 4,-9.15625 z"
       transform="translate(10.077162,-225)"
       id="rect2957"
       inkscape:connector-curvature="0" />
    <path
       style="fill:#e6e6e6;fill-opacity:0.2;stroke:none"
       d="m 765.65625,240 c -0.9418,0 -1.71875,0.7457 -1.71875,1.6875 l 0,4.25 -4.25,0 c -0.9418,0 -1.6875,0.77695 -1.6875,1.71875 l 0,1.6875 c 0,0.9418 0.7457,1.71875 1.6875,1.71875 l 4.25,0 0,4.25 c 0,0.9418 0.77695,1.6875 1.71875,1.6875 l 1.6875,0 c 0.9418,0 1.71875,-0.7457 1.71875,-1.6875 l 0,-4.25 4.25,0 c 0.9418,0 1.6875,-0.77695 1.6875,-1.71875 l 0,-1.6875 c 0,-0.9418 -0.7457,-1.71875 -1.6875,-1.71875 l -4.25,0 0,-4.25 c 0,-0.9418 -0.77695,-1.6875 -1.71875,-1.6875 l -1.6875,0 z M 745.375,250 c -0.34213,0 -0.64798,0.0574 -0.9375,0.125 -2.11576,0.41071 -4.26125,1.97307 -5.09375,3.875 l -14,32 c -0.96998,2.216 0.20601,4 2.625,4 l 3.125,0 c 2.41899,0 5.15502,-1.784 6.125,-4 l 2.28125,-5.1875 15,0 2.28125,5.1875 c 0.96998,2.216 3.70601,4 6.125,4 l 3.125,0 c 2.41899,0 3.59498,-1.784 2.625,-4 l -14,-32 c -0.8325,-1.90193 -2.97799,-3.46429 -5.09375,-3.875 -0.0315,-0.006 -0.0623,-0.0257 -0.0937,-0.0312 -0.01,-0.002 -0.0216,0.002 -0.0312,0 -0.27648,-0.0477 -0.54023,-0.0887 -0.8125,-0.0937 l -0.0937,0 -3.15625,0 z m 1.625,13.65625 4,9.15625 -8,0 4,-9.15625 z"
       transform="translate(10.077162,-225)"
       id="rect2967"
       inkscape:connector-curvature="0" />
    <path
       style="fill:#e6e6e6;fill-opacity:1;fill-rule:nonzero;stroke:none"
       d="m 821.19258,-45.084654 c -11.06731,0 -20.04233,8.975015 -20.04233,20.042327 0,11.067311 8.97502,20.042327 20.04233,20.042327 11.06731,0 20.04233,-8.975016 20.04233,-20.042327 0,-11.067312 -8.97502,-20.042327 -20.04233,-20.042327 z m 0,9.401453 c 5.87245,0 10.64087,4.768427 10.64087,10.640874 0,5.872446 -4.76842,10.640873 -10.64087,10.640873 -5.87245,0 -10.64087,-4.768427 -10.64087,-10.640873 0,-5.872447 4.76842,-10.640874 10.64087,-10.640874 z"
       id="path3062"
       inkscape:connector-curvature="0" />
    <path
       sodipodi:type="arc"
       style="fill:#e6e6e6;fill-opacity:1;fill-rule:nonzero;stroke:none"
       id="path3083"
       sodipodi:cx="811.11542"
       sodipodi:cy="202.84879"
       sodipodi:rx="3.1284554"
       sodipodi:ry="3.1284554"
       d="m 814.24387,202.84879 c 0,1.72779 -1.40065,3.12845 -3.12845,3.12845 -1.7278,0 -3.12846,-1.40066 -3.12846,-3.12845 0,-1.7278 1.40066,-3.12846 3.12846,-3.12846 1.7278,0 3.12845,1.40066 3.12845,3.12846 z"
       transform="matrix(0.96735214,0,0,0.96735214,36.558341,-221.701)" />
    <path
       inkscape:connector-curvature="0"
       id="path3075"
       d="m 821.19258,24.915346 c -11.06731,0 -20.04233,8.975015 -20.04233,20.042327 0,11.067311 8.97502,20.042327 20.04233,20.042327 11.06731,0 20.04233,-8.975016 20.04233,-20.042327 0,-11.067312 -8.97502,-20.042327 -20.04233,-20.042327 z m 0,9.401453 c 5.87245,0 10.64087,4.768427 10.64087,10.640874 0,5.872446 -4.76842,10.640873 -10.64087,10.640873 -5.87245,0 -10.64087,-4.768427 -10.64087,-10.640873 0,-5.872447 4.76842,-10.640874 10.64087,-10.640874 z"
       style="fill:#e6e6e6;fill-opacity:0.2;fill-rule:nonzero;stroke:none" />
  </g>
</svg>
