<?xml version="1.0" encoding="UTF-8" standalone="no"?>
<!-- Created with Inkscape (http://www.inkscape.org/) -->

<svg
   xmlns:dc="http://purl.org/dc/elements/1.1/"
   xmlns:cc="http://creativecommons.org/ns#"
   xmlns:rdf="http://www.w3.org/1999/02/22-rdf-syntax-ns#"
   xmlns:svg="http://www.w3.org/2000/svg"
   xmlns="http://www.w3.org/2000/svg"
   xmlns:sodipodi="http://sodipodi.sourceforge.net/DTD/sodipodi-0.dtd"
   xmlns:inkscape="http://www.inkscape.org/namespaces/inkscape"
   width="780"
   height="300"
   id="svg2"
   sodipodi:version="0.32"
   inkscape:version="0.47 r22583"
   version="1.0"
   sodipodi:docname="sprites.svg"
   inkscape:output_extension="org.inkscape.output.svg.inkscape"
   inkscape:export-filename="./../www/images/sprites.png"
   inkscape:export-xdpi="45"
   inkscape:export-ydpi="45">
  <defs
     id="defs4">
    <inkscape:perspective
       sodipodi:type="inkscape:persp3d"
       inkscape:vp_x="0 : 50 : 1"
       inkscape:vp_y="0 : 1000 : 0"
       inkscape:vp_z="300 : 50 : 1"
       inkscape:persp3d-origin="150 : 33.333333 : 1"
       id="perspective19" />
    <inkscape:perspective
       id="perspective2995"
       inkscape:persp3d-origin="0.5 : 0.33333333 : 1"
       inkscape:vp_z="1 : 0.5 : 1"
       inkscape:vp_y="0 : 1000 : 0"
       inkscape:vp_x="0 : 0.5 : 1"
       sodipodi:type="inkscape:persp3d" />
    <inkscape:perspective
       id="perspective3051"
       inkscape:persp3d-origin="0.5 : 0.33333333 : 1"
       inkscape:vp_z="1 : 0.5 : 1"
       inkscape:vp_y="0 : 1000 : 0"
       inkscape:vp_x="0 : 0.5 : 1"
       sodipodi:type="inkscape:persp3d" />
  </defs>
  <sodipodi:namedview
     id="base"
     pagecolor="#ffffff"
     bordercolor="#666666"
     borderopacity="1.0"
     inkscape:pageopacity="0.0"
     inkscape:pageshadow="2"
     inkscape:zoom="1"
     inkscape:cx="306.90246"
     inkscape:cy="174.16552"
     inkscape:document-units="px"
     inkscape:current-layer="layer1"
     height="100px"
     width="300px"
     inkscape:window-width="1280"
     inkscape:window-height="949"
     inkscape:window-x="0"
     inkscape:window-y="25"
     showgrid="false"
     inkscape:window-maximized="1"
     showguides="true"
     inkscape:guide-bbox="true">
    <sodipodi:guide
       orientation="1,0"
       position="60,-3"
       id="guide2826" />
    <sodipodi:guide
       orientation="1,0"
       position="120,18"
       id="guide2828" />
    <sodipodi:guide
       orientation="1,0"
       position="180,25"
       id="guide2830" />
    <sodipodi:guide
       orientation="1,0"
       position="240,-18"
       id="guide2832" />
    <sodipodi:guide
       orientation="1,0"
       position="300,14"
       id="guide2834" />
    <sodipodi:guide
       orientation="1,0"
       position="360,14"
       id="guide2836" />
    <sodipodi:guide
       orientation="1,0"
       position="420,-4"
       id="guide2838" />
    <sodipodi:guide
       orientation="1,0"
       position="480,-35.5"
       id="guide2862" />
    <sodipodi:guide
       orientation="1,0"
       position="540,-25"
       id="guide2864" />
    <sodipodi:guide
       orientation="1,0"
       position="600,-42.5"
       id="guide2866" />
    <sodipodi:guide
       orientation="1,0"
       position="0,77"
       id="guide2913" />
    <sodipodi:guide
       orientation="1,0"
       position="660,5"
       id="guide2915" />
    <sodipodi:guide
       orientation="1,0"
       position="720,92"
       id="guide2917" />
    <sodipodi:guide
       orientation="1,0"
       position="780,-19"
       id="guide3031" />
    <sodipodi:guide
       orientation="0,1"
       position="336,70"
       id="guide3176" />
    <sodipodi:guide
       orientation="0,1"
       position="720,140"
       id="guide2890" />
  </sodipodi:namedview>
  <metadata
     id="metadata7">
    <rdf:RDF>
      <cc:Work
         rdf:about="">
        <dc:format>image/svg+xml</dc:format>
        <dc:type
           rdf:resource="http://purl.org/dc/dcmitype/StillImage" />
        <dc:title></dc:title>
      </cc:Work>
    </rdf:RDF>
  </metadata>
  <g
     inkscape:label="Calque 1"
     inkscape:groupmode="layer"
     id="layer1"
     transform="translate(-10.077162,225)">
    <path
       sodipodi:type="star"
       style="fill:#e6e6e6;fill-opacity:1;stroke:none"
       id="path2160"
       sodipodi:sides="3"
       sodipodi:cx="252.11807"
       sodipodi:cy="1015.6689"
       sodipodi:r1="29.591324"
       sodipodi:r2="15.979315"
       sodipodi:arg1="0"
       sodipodi:arg2="1.0471976"
       inkscape:flatsided="true"
       inkscape:rounded="0.09"
       inkscape:randomized="3.1225023e-17"
       d="m 281.7094,1015.6689 c 0,4.6128 -40.39216,27.9332 -44.38699,25.6268 -3.99483,-2.3064 -3.99483,-48.94724 0,-51.25365 3.99483,-2.30642 44.38699,21.01405 44.38699,25.62685 z"
       transform="matrix(0.97081012,0,0,0.9694876,-30.409171,-1014.6784)"
       inkscape:export-filename="C:\www\server\flash\play.png"
       inkscape:export-xdpi="90"
       inkscape:export-ydpi="90" />
    <rect
       style="fill:#e6e6e6;fill-opacity:1;stroke:none"
       id="rect2162"
       width="50"
       height="50"
       x="315.07715"
       y="-55"
       ry="5"
       rx="5"
       inkscape:export-filename="C:\www\server\flash\stop.png"
       inkscape:export-xdpi="90"
       inkscape:export-ydpi="90" />
    <g
       id="g2195"
       transform="translate(235.07716,-134)"
       inkscape:export-filename="C:\www\server\flash\pause.png"
       inkscape:export-xdpi="90"
       inkscape:export-ydpi="90"
       style="fill:#e6e6e6">
      <rect
         ry="5"
         style="fill:#e6e6e6;fill-opacity:1;stroke:none"
         id="rect2166"
         width="15"
         height="50"
         x="25"
         y="79" />
      <rect
         ry="5"
         y="79"
         x="50"
         height="50"
         width="15"
         id="rect2168"
         style="fill:#e6e6e6;fill-opacity:1;stroke:none" />
    </g>
    <g
       id="g2191"
       transform="matrix(0.99472202,0,0,1,207.84369,-80)"
       inkscape:export-filename="C:\www\server\flash\forward.png"
       inkscape:export-xdpi="90"
       inkscape:export-ydpi="90"
       style="fill:#e6e6e6">
      <path
         sodipodi:type="star"
         style="fill:#e6e6e6;fill-opacity:1;stroke:none"
         id="path2164"
         sodipodi:sides="3"
         sodipodi:cx="252.11807"
         sodipodi:cy="1015.6689"
         sodipodi:r1="29.591324"
         sodipodi:r2="14.795662"
         sodipodi:arg1="0"
         sodipodi:arg2="1.0471976"
         inkscape:flatsided="true"
         inkscape:rounded="0.09"
         inkscape:randomized="0"
         d="m 281.7094,1015.6689 c 0,4.6128 -40.39216,27.9332 -44.38699,25.6268 -3.99483,-2.3064 -3.99483,-48.94724 0,-51.25365 3.99483,-2.30642 44.38699,21.01405 44.38699,25.62685 z"
         transform="matrix(0.4477871,0,0,0.9694876,68.721701,-934.67839)" />
      <path
         transform="matrix(0.4477871,0,0,0.9694876,88.721702,-934.67839)"
         d="m 281.7094,1015.6689 c 0,4.6128 -40.39216,27.9332 -44.38699,25.6268 -3.99483,-2.3064 -3.99483,-48.94724 0,-51.25365 3.99483,-2.30642 44.38699,21.01405 44.38699,25.62685 z"
         inkscape:randomized="0"
         inkscape:rounded="0.09"
         inkscape:flatsided="true"
         sodipodi:arg2="1.0471976"
         sodipodi:arg1="0"
         sodipodi:r2="14.795662"
         sodipodi:r1="29.591324"
         sodipodi:cy="1015.6689"
         sodipodi:cx="252.11807"
         sodipodi:sides="3"
         id="path2170"
         style="fill:#e6e6e6;fill-opacity:1;stroke:none"
         sodipodi:type="star" />
    </g>
    <g
       id="g2186"
       transform="matrix(1.0018521,0,0,1,211.01295,-80)"
       inkscape:export-filename="C:\www\server\flash\next.png"
       inkscape:export-xdpi="90"
       inkscape:export-ydpi="90"
       style="fill:#e6e6e6">
      <rect
         rx="5"
         ry="5"
         style="fill:#e6e6e6;fill-opacity:1;stroke:none"
         id="rect2176"
         width="10"
         height="50"
         x="263.55756"
         y="25" />
      <path
         transform="matrix(0.4477871,0,0,0.9694876,118.7217,-934.67839)"
         d="m 281.7094,1015.6689 c 0,4.6128 -40.39216,27.9332 -44.38699,25.6268 -3.99483,-2.3064 -3.99483,-48.94724 0,-51.25365 3.99483,-2.30642 44.38699,21.01405 44.38699,25.62685 z"
         inkscape:randomized="0"
         inkscape:rounded="0.09"
         inkscape:flatsided="true"
         sodipodi:arg2="1.0471976"
         sodipodi:arg1="0"
         sodipodi:r2="14.795662"
         sodipodi:r1="29.591324"
         sodipodi:cy="1015.6689"
         sodipodi:cx="252.11807"
         sodipodi:sides="3"
         id="path2182"
         style="fill:#e6e6e6;fill-opacity:1;stroke:none"
         sodipodi:type="star" />
      <path
         sodipodi:type="star"
         style="fill:#e6e6e6;fill-opacity:1;stroke:none"
         id="path2184"
         sodipodi:sides="3"
         sodipodi:cx="252.11807"
         sodipodi:cy="1015.6689"
         sodipodi:r1="29.591324"
         sodipodi:r2="14.795662"
         sodipodi:arg1="0"
         sodipodi:arg2="1.0471976"
         inkscape:flatsided="true"
         inkscape:rounded="0.09"
         inkscape:randomized="0"
         d="m 281.7094,1015.6689 c 0,4.6128 -40.39216,27.9332 -44.38699,25.6268 -3.99483,-2.3064 -3.99483,-48.94724 0,-51.25365 3.99483,-2.30642 44.38699,21.01405 44.38699,25.62685 z"
         transform="matrix(0.447787,0,0,0.9694876,138.72173,-934.67839)" />
    </g>
    <g
       inkscape:export-ydpi="90"
       inkscape:export-xdpi="90"
       inkscape:export-filename="C:\www\server\flash\forward.png"
       transform="matrix(-0.99472202,0,0,-1,353.31063,19.999996)"
       id="g2840"
       style="fill:#e6e6e6">
      <path
         transform="matrix(0.4477871,0,0,0.9694876,68.721701,-934.67839)"
         d="m 281.7094,1015.6689 c 0,4.6128 -40.39216,27.9332 -44.38699,25.6268 -3.99483,-2.3064 -3.99483,-48.94724 0,-51.25365 3.99483,-2.30642 44.38699,21.01405 44.38699,25.62685 z"
         inkscape:randomized="0"
         inkscape:rounded="0.09"
         inkscape:flatsided="true"
         sodipodi:arg2="1.0471976"
         sodipodi:arg1="0"
         sodipodi:r2="14.795662"
         sodipodi:r1="29.591324"
         sodipodi:cy="1015.6689"
         sodipodi:cx="252.11807"
         sodipodi:sides="3"
         id="path2842"
         style="fill:#e6e6e6;fill-opacity:1;stroke:none"
         sodipodi:type="star" />
      <path
         sodipodi:type="star"
         style="fill:#e6e6e6;fill-opacity:1;stroke:none"
         id="path2844"
         sodipodi:sides="3"
         sodipodi:cx="252.11807"
         sodipodi:cy="1015.6689"
         sodipodi:r1="29.591324"
         sodipodi:r2="14.795662"
         sodipodi:arg1="0"
         sodipodi:arg2="1.0471976"
         inkscape:flatsided="true"
         inkscape:rounded="0.09"
         inkscape:randomized="0"
         d="m 281.7094,1015.6689 c 0,4.6128 -40.39216,27.9332 -44.38699,25.6268 -3.99483,-2.3064 -3.99483,-48.94724 0,-51.25365 3.99483,-2.30642 44.38699,21.01405 44.38699,25.62685 z"
         transform="matrix(0.4477871,0,0,0.9694876,88.721702,-934.67839)" />
    </g>
    <g
       inkscape:export-ydpi="90"
       inkscape:export-xdpi="90"
       inkscape:export-filename="C:\www\server\flash\next.png"
       transform="matrix(-1.0018521,0,0,-1,349.14137,19.999997)"
       id="g2846"
       style="fill:#e6e6e6">
      <rect
         y="25"
         x="263.55756"
         height="50"
         width="10"
         id="rect2848"
         style="fill:#e6e6e6;fill-opacity:1;stroke:none"
         ry="5"
         rx="5" />
      <path
         sodipodi:type="star"
         style="fill:#e6e6e6;fill-opacity:1;stroke:none"
         id="path2850"
         sodipodi:sides="3"
         sodipodi:cx="252.11807"
         sodipodi:cy="1015.6689"
         sodipodi:r1="29.591324"
         sodipodi:r2="14.795662"
         sodipodi:arg1="0"
         sodipodi:arg2="1.0471976"
         inkscape:flatsided="true"
         inkscape:rounded="0.09"
         inkscape:randomized="0"
         d="m 281.7094,1015.6689 c 0,4.6128 -40.39216,27.9332 -44.38699,25.6268 -3.99483,-2.3064 -3.99483,-48.94724 0,-51.25365 3.99483,-2.30642 44.38699,21.01405 44.38699,25.62685 z"
         transform="matrix(0.4477871,0,0,0.9694876,118.7217,-934.67839)" />
      <path
         transform="matrix(0.447787,0,0,0.9694876,138.72173,-934.67839)"
         d="m 281.7094,1015.6689 c 0,4.6128 -40.39216,27.9332 -44.38699,25.6268 -3.99483,-2.3064 -3.99483,-48.94724 0,-51.25365 3.99483,-2.30642 44.38699,21.01405 44.38699,25.62685 z"
         inkscape:randomized="0"
         inkscape:rounded="0.09"
         inkscape:flatsided="true"
         sodipodi:arg2="1.0471976"
         sodipodi:arg1="0"
         sodipodi:r2="14.795662"
         sodipodi:r1="29.591324"
         sodipodi:cy="1015.6689"
         sodipodi:cx="252.11807"
         sodipodi:sides="3"
         id="path2852"
         style="fill:#e6e6e6;fill-opacity:1;stroke:none"
         sodipodi:type="star" />
    </g>
    <g
       id="g2854"
       transform="matrix(0,-1.0018521,1,0,-9.9228415,219.06421)"
       inkscape:export-filename="C:\www\server\flash\next.png"
       inkscape:export-xdpi="90"
       inkscape:export-ydpi="90"
       style="fill:#e6e6e6">
      <rect
         rx="5"
         ry="5"
         style="fill:#e6e6e6;fill-opacity:1;stroke:none"
         id="rect2856"
         width="10"
         height="50"
         x="229.62033"
         y="25" />
      <path
         sodipodi:type="star"
         style="fill:#e6e6e6;fill-opacity:1;stroke:none"
         id="path2860"
         sodipodi:sides="3"
         sodipodi:cx="252.11807"
         sodipodi:cy="1015.6689"
         sodipodi:r1="29.591324"
         sodipodi:r2="14.795662"
         sodipodi:arg1="0"
         sodipodi:arg2="1.0471976"
         inkscape:flatsided="true"
         inkscape:rounded="0.09"
         inkscape:randomized="0"
         d="m 281.7094,1015.6689 c 0,4.6128 -40.39216,27.9332 -44.38699,25.6268 -3.99483,-2.3064 -3.99483,-48.94724 0,-51.25365 3.99483,-2.30642 44.38699,21.01405 44.38699,25.62685 z"
         transform="matrix(0.55950396,0,0,0.9694876,111.24261,-934.67839)" />
    </g>
    <g
       id="g2908"
       style="fill:#e6e6e6"
       transform="translate(0,-70)">
      <rect
         style="fill:#e6e6e6;fill-opacity:1;stroke:none"
         id="rect2868"
         width="14.818033"
         height="22.227034"
         x="496.57715"
         y="28.886484"
         ry="2.2227032"
         rx="1.4818033"
         inkscape:export-filename="C:\www\server\flash\stop.png"
         inkscape:export-xdpi="90"
         inkscape:export-ydpi="90" />
      <path
         transform="matrix(-0.44542369,0,0,0.9694876,625.37525,-944.67839)"
         d="m 281.7094,1015.6689 c 0,4.6128 -40.39216,27.9332 -44.38699,25.6268 -3.99483,-2.3064 -3.99483,-48.94724 0,-51.25365 3.99483,-2.30642 44.38699,21.01405 44.38699,25.62685 z"
         inkscape:randomized="0"
         inkscape:rounded="0.09"
         inkscape:flatsided="true"
         sodipodi:arg2="1.0471976"
         sodipodi:arg1="0"
         sodipodi:r2="14.795662"
         sodipodi:r1="29.591324"
         sodipodi:cy="1015.6689"
         sodipodi:cx="252.11807"
         sodipodi:sides="3"
         id="path2872"
         style="fill:#e6e6e6;fill-opacity:1;stroke:none"
         sodipodi:type="star" />
      <rect
         transform="matrix(0,1,-1,0,0,0)"
         style="fill:#e6e6e6;fill-opacity:1;stroke:none"
         id="rect2882"
         width="5.0999999"
         height="17"
         x="39.200001"
         y="-543.57715"
         ry="1.7" />
    </g>
    <g
       id="g2902"
       style="fill:#e6e6e6"
       transform="translate(0,-70)">
      <rect
         inkscape:export-ydpi="90"
         inkscape:export-xdpi="90"
         inkscape:export-filename="C:\www\server\flash\stop.png"
         rx="1.4818033"
         ry="2.2227032"
         y="28.886484"
         x="556.57715"
         height="22.227034"
         width="14.818033"
         id="rect2894"
         style="fill:#e6e6e6;fill-opacity:1;stroke:none" />
      <path
         sodipodi:type="star"
         style="fill:#e6e6e6;fill-opacity:1;stroke:none"
         id="path2896"
         sodipodi:sides="3"
         sodipodi:cx="252.11807"
         sodipodi:cy="1015.6689"
         sodipodi:r1="29.591324"
         sodipodi:r2="14.795662"
         sodipodi:arg1="0"
         sodipodi:arg2="1.0471976"
         inkscape:flatsided="true"
         inkscape:rounded="0.09"
         inkscape:randomized="0"
         d="m 281.7094,1015.6689 c 0,4.6128 -40.39216,27.9332 -44.38699,25.6268 -3.99483,-2.3064 -3.99483,-48.94724 0,-51.25365 3.99483,-2.30642 44.38699,21.01405 44.38699,25.62685 z"
         transform="matrix(-0.44542369,0,0,0.9694876,685.37525,-944.67839)" />
      <rect
         ry="1.7"
         style="fill:#e6e6e6;fill-opacity:1;stroke:none"
         id="rect2898"
         width="5.0999999"
         height="17"
         x="592.52716"
         y="33.25" />
      <rect
         ry="1.7"
         y="-603.57715"
         x="39.200001"
         height="17"
         width="5.0999999"
         id="rect2900"
         style="fill:#e6e6e6;fill-opacity:1;stroke:none"
         transform="matrix(0,1,-1,0,0,0)" />
    </g>
    <g
       id="g3012"
       style="fill:#e6e6e6"
       transform="translate(60.000028,-70)">
      <rect
         transform="matrix(1,0,0.40098447,0.91608485,0,0)"
         style="fill:#e6e6e6;fill-opacity:1;stroke:none"
         id="rect2923"
         width="11.88257"
         height="43.664074"
         x="620.15259"
         y="27.290049"
         ry="4.3664074" />
      <rect
         transform="matrix(0,1,-1,0,0,0)"
         ry="3.1686854"
         style="fill:#e6e6e6;fill-opacity:1;stroke:none"
         id="rect2927"
         width="8"
         height="31.686855"
         x="47.799999"
         y="-652.12842" />
      <rect
         ry="4.3664074"
         y="27.290049"
         x="-654.00177"
         height="43.664078"
         width="11.88257"
         id="rect2929"
         style="fill:#e6e6e6;fill-opacity:1;stroke:none"
         transform="matrix(-1,0,-0.40098447,0.91608485,0,0)" />
      <rect
         transform="matrix(0,1,-1,0,0,0)"
         style="fill:#e6e6e6;fill-opacity:1;stroke:none"
         id="rect2900-5"
         width="5.0999999"
         height="17"
         x="20.949995"
         y="-665.07715"
         ry="1.7" />
    </g>
    <g
       id="g3019"
       transform="translate(120.00006,-70)"
       style="fill:#e6e6e6">
      <rect
         ry="4.3664074"
         y="27.290049"
         x="620.15259"
         height="43.664074"
         width="11.88257"
         id="rect3021"
         style="fill:#e6e6e6;fill-opacity:1;stroke:none"
         transform="matrix(1,0,0.40098447,0.91608485,0,0)" />
      <rect
         y="-652.12842"
         x="47.799999"
         height="31.686855"
         width="8"
         id="rect3023"
         style="fill:#e6e6e6;fill-opacity:1;stroke:none"
         ry="3.1686854"
         transform="matrix(0,1,-1,0,0,0)" />
      <rect
         transform="matrix(-1,0,-0.40098447,0.91608485,0,0)"
         style="fill:#e6e6e6;fill-opacity:1;stroke:none"
         id="rect3025"
         width="11.88257"
         height="43.664078"
         x="-654.00177"
         y="27.290049"
         ry="4.3664074" />
      <rect
         ry="1.7"
         style="fill:#e6e6e6;fill-opacity:1;stroke:none"
         id="rect3027"
         width="5.0999999"
         height="17"
         x="654.02716"
         y="14.999999" />
      <rect
         ry="1.7"
         y="-665.07715"
         x="20.949995"
         height="17"
         width="5.0999999"
         id="rect3029"
         style="fill:#e6e6e6;fill-opacity:1;stroke:none"
         transform="matrix(0,1,-1,0,0,0)" />
    </g>
    <g
       id="g3001">
      <rect
         style="fill:#e6e6e6;fill-opacity:1;stroke:none"
         id="rect3035"
         width="14.818033"
         height="22.227034"
         x="616.57715"
         y="-41.113518"
         ry="2.2227032"
         rx="1.4818033"
         inkscape:export-filename="C:\www\server\flash\stop.png"
         inkscape:export-xdpi="90"
         inkscape:export-ydpi="90" />
      <path
         transform="matrix(-0.44542369,0,0,0.9694876,745.37526,-1014.6784)"
         d="m 281.7094,1015.6689 c 0,4.6128 -40.39216,27.9332 -44.38699,25.6268 -3.99483,-2.3064 -3.99483,-48.94724 0,-51.25365 3.99483,-2.30642 44.38699,21.01405 44.38699,25.62685 z"
         inkscape:randomized="0"
         inkscape:rounded="0.09"
         inkscape:flatsided="true"
         sodipodi:arg2="1.0471976"
         sodipodi:arg1="0"
         sodipodi:r2="14.795662"
         sodipodi:r1="29.591324"
         sodipodi:cy="1015.6689"
         sodipodi:cx="252.11807"
         sodipodi:sides="3"
         id="path3037"
         style="fill:#e6e6e6;fill-opacity:1;stroke:none"
         sodipodi:type="star" />
      <rect
         ry="2.1888266"
         y="22.733557"
         x="-675.9845"
         height="21.888271"
         width="7.5556669"
         id="rect2929-5"
         style="fill:#e6e6e6;fill-opacity:1;stroke:none"
         transform="matrix(-1,0,-0.50863094,-0.86098465,0,0)" />
      <rect
         transform="matrix(1,0,0.50863094,-0.86098465,0,0)"
         style="fill:#e6e6e6;fill-opacity:1;stroke:none"
         id="rect3065"
         width="7.5556669"
         height="21.888271"
         x="634.16986"
         y="22.733557"
         ry="2.1888266" />
    </g>
    <path
       style="font-size:144px;font-style:normal;font-variant:normal;font-weight:bold;font-stretch:normal;text-align:start;line-height:125%;writing-mode:lr-tb;text-anchor:start;fill:#e6e6e6;fill-opacity:1;stroke:none;font-family:FreeSans;-inkscape-font-specification:Bitstream Charter Bold"
       d="M 468.0625 10 C 467.83805 10.037719 467.5923 10.186623 467.3125 10.4375 C 463.48182 11.93696 459.39149 12.507 455.34375 13.09375 C 453.33447 18.59055 457.72892 18.1621 459.0625 20.875 L 459.0625 58.9375 C 465.98763 62.53304 475.14586 66.20535 482.03125 60.4375 C 490.11215 55.37697 494.73143 44.68327 490.21875 35.6875 C 487.40932 27.99281 477.45255 27.07264 471.4375 31.25 C 470.78227 24.95094 472.73814 17.48521 470.46875 11.90625 C 469.56708 11.386705 469.03511 9.8365519 468.0625 10 z M 326.84375 18.40625 C 326.3112 18.409043 325.77986 18.41936 325.25 18.4375 C 319.48082 18.6538 313.8031 19.298131 308.1875 20.5625 C 307.46613 19.095638 305.84415 18.225113 303.375 19.34375 C 298.81709 20.54538 288.43492 16.85556 287.28125 21.34375 C 286.12494 25.26238 288.44322 25.92311 291.46875 26.6875 C 291.19672 36.20845 292.02657 46.43279 291.125 55.53125 C 289.02257 55.488456 287.77872 56.511181 287.28125 57.8125 C 286.87241 56.967194 286.02269 56.239179 284.625 55.875 C 280.00376 55.02367 284.006 47.58816 282.59375 44.3125 C 282.89749 38.41586 281.75241 31.32095 282.90625 26.125 C 287.63129 27.70192 288.02119 17.82052 283.3125 19.34375 C 278.7036 20.12899 270.78247 16.76145 269.125 23.15625 L 259.4375 44.4375 C 255.30023 36.46381 253.04862 27.2497 247.96875 19.90625 C 243.09631 18.34978 237.65153 19.87286 232.59375 19.34375 L 232.59375 20.34375 L 232.59375 21.34375 C 230.35673 27.94932 239.75112 23.83738 236.75 31.28125 C 236.41287 39.28018 237.03354 47.91622 236.125 55.53125 C 230.02431 54.89218 230.89959 65.6343 237.25 62.65625 C 242.45879 61.93731 252.01297 65.56601 249.46875 57.0625 C 247.48912 55.76286 243.22002 55.94311 245.3125 51.40625 C 245.01145 43.58352 245.22957 38.25299 248.65625 48.59375 C 251.47067 52.79494 252.05338 60.48289 256.15625 62.65625 C 263.13272 64.77388 262.90005 55.6671 265.875 51.53125 C 268.43139 45.91761 271.84572 36.35608 270.75 48.03125 C 272.81193 54.07936 269.11766 55.83825 266.3125 58.0625 C 264.37811 66.19289 275.34605 61.36065 280.21875 62.65625 C 283.53265 64.341293 286.34235 62.685161 287.25 60.5625 C 287.89314 62.656821 290.0307 64.267867 293.25 62.65625 C 297.5352 61.350293 306.94689 65.175307 308.21875 60.84375 C 308.96326 62.797604 311.05004 64.195606 314.125 62.65625 C 324.50693 62.59675 337.77051 64.72255 344.96875 55.375 C 353.13211 44.82918 351.61859 25.17814 337.8125 20.1875 C 334.34947 18.786677 330.57162 18.386698 326.84375 18.40625 z M 387.4375 18.78125 C 386.83451 18.789438 386.12994 18.94905 385.375 19.34375 C 381.63042 20.382925 373.19142 17.592991 371.03125 20.28125 C 370.24525 18.997074 368.70661 18.301584 366.40625 19.34375 C 361.84834 20.54538 351.46617 16.85556 350.3125 21.34375 C 349.15619 25.26238 351.47447 25.92311 354.5 26.6875 C 354.22798 36.20845 355.02658 46.43279 354.125 55.53125 C 347.39722 55.39431 349.5827 66.00961 356.28125 62.65625 C 360.90593 61.24683 371.48244 65.81705 371.375 59.65625 C 373.5456 55.06545 367.30996 57.2429 367.1875 54.375 C 367.44635 45.1995 366.69204 35.25729 367.53125 26.53125 C 369.13538 26.675492 370.24079 25.989343 370.90625 25 C 372.40428 26.021372 375.35132 25.890571 375.40625 28.625 C 378.0822 40.4157 380.78138 52.20481 383.4375 64 C 388.11386 63.58142 392.7776 61.07394 393.125 55.75 C 395.17842 51.46877 397.18484 41.73711 399.28125 40.625 C 402.32544 48.39374 405.30244 56.18009 408.375 63.9375 C 412.97857 63.55895 417.47995 60.66087 417.03125 55.34375 C 419.43655 45.88375 420.61954 35.42917 423.75 26.5625 C 429.54301 27.70625 430.1171 17.16266 424.0625 19.34375 C 419.41668 20.73194 408.553 15.86932 409.96875 23.34375 C 412.61382 26.49666 416.47021 27.58913 412.84375 34.3125 C 411.97809 45.85426 409.26491 34.17885 407.09375 29.375 C 404.88564 24.44407 404.44054 16.86499 397.21875 19.34375 C 394.10674 25.37294 392.40581 33.29694 389.8125 40.03125 C 389.14011 35.56414 386.70835 30.071 386.96875 26.15625 C 392.02747 26.903325 391.65841 18.723934 387.4375 18.78125 z M 307.84375 25.0625 C 309.42493 28.033277 313.97939 27.042369 312.375 33.15625 C 312.08219 40.51033 312.92964 48.60456 312 55.53125 C 310.28302 55.496302 309.13024 56.171338 308.5 57.125 C 307.47595 55.904861 304.24404 56.430974 304.15625 54.375 C 304.4151 45.1995 303.66079 35.25729 304.5 26.53125 C 306.07325 26.672715 307.17366 26.020283 307.84375 25.0625 z M 326.5 25.90625 C 333.27347 26.111599 337.07075 33.537531 336.53125 39.8125 C 337.36623 46.49404 333.2051 56.709 325.0625 54.90625 C 325.0308 45.2819 324.97005 35.49304 325.09375 25.96875 C 325.57127 25.915733 326.04844 25.89256 326.5 25.90625 z M 443.46875 28.625 C 442.90916 28.636961 442.32615 28.698653 441.75 28.78125 C 430.47576 29.50861 422.86574 42.18455 426.78125 52.75 C 429.55639 63.80744 444.55574 67.01395 452.53125 59.625 C 455.15308 57.44185 459.35963 54.90371 455.75 51.875 C 452.62652 47.74297 448.89722 54.56022 444.75 53.96875 C 441.389 54.65564 438.9777 51.35267 438.78125 48.3125 C 445.12663 48.10402 452.69358 49.93427 457.375 44.4375 C 458.20228 35.99445 451.86266 28.445579 443.46875 28.625 z M 441.875 36.59375 C 444.73917 36.21985 446.86824 42.56886 442.15625 40.5625 C 436.90397 42.64599 439.07404 36.5753 441.875 36.59375 z M 475.5625 38.46875 C 481.08912 39.18831 480.51086 47.40475 479.625 51.375 C 478.63352 55.99098 469.67969 54.01139 471.4375 49.4375 C 472.21458 45.86246 469.1433 39.22087 474.28125 38.71875 C 474.68389 38.54263 475.13063 38.49277 475.5625 38.46875 z M 120 50 L 120 50.84375 L 120 51.71875 L 120 147.03125 L 149.0625 147.03125 C 149.18737 136.27284 148.81775 125.33446 149.25 114.6875 C 151.57435 113.27656 153.32293 109.24712 156.03125 109.125 C 165.665 122.18329 177.22086 134.31476 187.5625 147.03125 L 222.8125 147.03125 C 222.22977 146.37416 221.64522 145.7196 221.0625 145.0625 C 223.90608 147.10601 227.31179 148.57911 231.1875 149.1875 C 240.93303 151.59081 251.896 148.08316 259.46875 143.84375 C 261.57745 147.91377 267.03073 147.47029 271.1875 147.03125 L 288.9375 147.03125 C 291.83619 142.38839 287.14564 138.48752 285 134.6875 C 283.92597 119.12367 286.73698 103.10223 283.53125 87.65625 C 278.89692 75.88196 263.2387 71.74479 250.1875 72.25 C 249.3898 72.243 248.60967 72.25396 247.8125 72.28125 C 232.86226 71.7078 216.23313 79.578 214 93.375 C 213.32893 96.29883 213.06257 99.26593 212.90625 102.25 C 220.09821 102.2859 228.65115 102.1862 235 102.3125 C 223.9137 104.09692 213.50008 111.01853 211.9375 121.15625 C 210.59917 126.56979 211.50216 132.41016 214.25 137.375 C 200.98458 122.41438 187.73379 107.46087 174.46875 92.5 C 189.46328 78.33612 204.44549 64.16592 219.4375 50 L 183.625 50 C 172.09208 61.29892 160.57732 72.62441 149.0625 83.9375 L 149.0625 50 L 120 50 z M 510.34375 50 L 510.34375 50.84375 L 510.34375 51.71875 L 510.34375 147.03125 L 537.90625 147.03125 C 538.88104 138.51108 536.27186 129.41033 539.21875 121.25 C 541.09482 117.58074 543.01473 122.87756 543.875 124.21875 C 548.36193 131.89528 553.25348 139.40896 557.875 147.03125 L 590.25 147.03125 C 580.23927 132.21607 570.30725 117.35556 560.375 102.5 C 570.38018 92.78966 580.40736 83.11872 590.375 73.375 L 557.21875 73.375 C 550.81414 80.05131 544.38585 86.70782 537.96875 93.375 L 537.96875 50 L 510.34375 50 z M 338.65625 72.15625 C 332.38704 72.195161 325.93283 74.8571 321.65625 78.03125 C 320.80073 72.45513 313.26381 72.38837 308.46875 73.625 C 303.83258 73.7344 295.64234 71.08871 293.84375 76.53125 C 293.55285 99.96164 293.80401 123.54735 293.71875 147.03125 L 321.3125 147.03125 C 322.1148 131.99972 319.8538 116.63983 322.4375 101.8125 C 325.78225 95.51156 335.68861 95.55575 342.3125 97.09375 C 342.51102 96.937329 342.66985 96.757181 342.84375 96.59375 C 342.58285 98.474982 342.44334 100.3489 342.34375 102.25 C 349.5357 102.2859 358.08865 102.1862 364.4375 102.3125 C 353.3512 104.09692 342.93758 111.01853 341.375 121.15625 C 338.44312 133.01569 346.29518 146.93806 360.625 149.1875 C 370.37053 151.59081 381.33349 148.08316 388.90625 143.84375 C 391.01495 147.91377 396.46822 147.47029 400.625 147.03125 L 418.375 147.03125 C 421.27369 142.38839 416.58314 138.48752 414.4375 134.6875 C 413.36346 119.12367 416.17448 103.10223 412.96875 87.65625 C 408.33441 75.88196 392.67619 71.74479 379.625 72.25 C 378.8273 72.243 378.04716 72.25396 377.25 72.28125 C 364.32087 71.785324 350.13794 77.616571 345.09375 88.125 C 344.83512 85.417696 344.3472 82.622921 344.9375 80.15625 C 345.50996 76.90712 345.21251 71.65075 339.90625 72.15625 C 339.4906 72.134861 339.0742 72.153656 338.65625 72.15625 z M 463.3125 72.21875 C 462.54699 72.218517 461.79477 72.246311 461.03125 72.28125 C 441.3231 71.4661 422.84148 85.46069 421.28125 102.8125 C 417.93591 119.27108 424.3635 139.5229 443.1875 146.53125 C 462.70313 154.36214 490.44057 148.93728 499.375 130.59375 C 506.85166 115.80597 505.50936 96.78113 493.90625 83.875 C 486.37979 76.184116 474.79513 72.222244 463.3125 72.21875 z M 617.40625 72.25 C 599.08705 72.513305 583.54797 86.559639 581.90625 102.28125 C 578.54359 118.33124 583.27138 138.21404 601 146.15625 C 621.19201 155.35976 650.35136 147.54349 658.15625 128.09375 C 660.93665 125.26476 658.59784 120.83741 654.25 121.25 C 648.51801 121.58728 642.8404 121.46242 637.125 121.15625 C 631.21369 121.15709 631.26372 128.11528 625.75 129.0625 C 619.02187 131.71955 609.7351 128.50463 609.25 121.46875 C 607.30824 116.36644 617.4353 120.3252 620.625 119.09375 L 659.5 119.09375 C 661.70338 103.19957 656.71675 83.85677 639.125 76.1875 C 633.08153 73.2416 626.07537 72.12938 619.1875 72.28125 C 618.59116 72.260662 617.99719 72.241506 617.40625 72.25 z M 620.375 92.25 C 625.74203 92.136795 629.9859 96.426931 630.90625 100.71875 C 623.85723 100.66415 616.45704 100.81409 609.625 100.625 C 610.66706 96.63689 613.99632 92.18478 619.28125 92.34375 C 619.64836 92.295868 620.0172 92.257547 620.375 92.25 z M 251.625 92.96875 C 255.06429 92.9967 259.63095 95.076691 256.84375 98.1875 C 251.86233 100.94943 245.45427 100.32273 239.875 101.46875 C 239.19522 97.48202 241.99776 92.45056 247.34375 93.21875 C 248.30366 93.16045 249.25575 93.09721 250.21875 93.09375 C 250.63811 93.011117 251.13367 92.964757 251.625 92.96875 z M 381.03125 92.96875 C 384.47054 92.9967 389.06845 95.076691 386.28125 98.1875 C 381.29982 100.94943 374.89177 100.32273 369.3125 101.46875 C 368.61973 97.47842 371.45274 92.45256 376.78125 93.21875 C 377.74117 93.16045 378.69326 93.09721 379.65625 93.09375 C 380.07561 93.011117 380.53992 92.964757 381.03125 92.96875 z M 461.5 93.09375 C 472.24386 92.48517 476.94261 103.79764 476.28125 111.59375 C 476.91905 119.58828 470.81479 130.5869 460.15625 128.875 C 449.37517 126.74904 447.11005 115.04576 448.5 106.875 C 449.16174 100.8174 453.51754 93.25517 461.5 93.09375 z M 257.6875 116.875 C 258.92958 123.60743 252.16579 130.46787 244.1875 129.09375 C 238.64586 128.88359 236.91673 121.62091 242.4375 119.9375 C 247.08324 117.83471 252.8408 118.37711 257.6875 116.875 z M 387.125 116.875 C 388.47007 123.87529 381.06091 130.80732 372.90625 129 C 367.02915 128.08569 367.11715 120.48161 372.9375 119.4375 C 377.48317 117.97599 382.59947 118.21261 387.125 116.875 z "
       transform="translate(10.077162,-225)"
       id="path3072" />
    <path
       style="fill:#e6e6e6;fill-opacity:0.2;stroke:none"
       d="M 629.0625 240.03125 C 627.06912 240.41213 620.94188 247.31065 616.125 253.875 L 607.96875 253.875 C 607.14783 253.875 606.5 254.86237 606.5 256.09375 L 606.5 273.90625 C 606.5 275.13763 607.14783 276.125 607.96875 276.125 L 616.125 276.125 C 621.4965 283.44517 628.51666 291.19726 629.59375 289.84375 C 631.37314 287.60771 631.37314 242.39229 629.59375 240.15625 C 629.48254 240.0165 629.29202 239.9874 629.0625 240.03125 z M 637.84375 256.59375 C 636.63114 256.59375 636.16448 257.42471 636.78125 258.46875 L 641.25 266 L 636.78125 273.53125 C 636.16448 274.57529 636.63114 275.4375 637.84375 275.4375 L 641.03125 275.4375 C 642.24386 275.4375 643.69573 274.57529 644.3125 273.53125 L 645 272.375 L 645.6875 273.53125 C 646.30427 274.57529 647.75614 275.4375 648.96875 275.4375 L 652.15625 275.4375 C 653.36886 275.4375 653.83552 274.57529 653.21875 273.53125 L 648.75 266 L 653.21875 258.46875 C 653.83552 257.42471 653.36886 256.59375 652.15625 256.59375 L 648.96875 256.59375 C 647.75614 256.59375 646.30427 257.42471 645.6875 258.46875 L 645 259.625 L 644.3125 258.46875 C 643.69573 257.42471 642.24386 256.59375 641.03125 256.59375 L 637.84375 256.59375 z "
       transform="translate(10.077162,-225)"
       id="rect2977" />
    <path
       inkscape:export-ydpi="90"
       inkscape:export-xdpi="90"
       inkscape:export-filename="C:\www\server\flash\play.png"
       transform="matrix(0.97081012,0,0,0.9694876,-30.409171,-944.6784)"
       d="m 281.7094,1015.6689 c 0,4.6128 -40.39216,27.9332 -44.38699,25.6268 -3.99483,-2.3064 -3.99483,-48.94724 0,-51.25365 3.99483,-2.30642 44.38699,21.01405 44.38699,25.62685 z"
       inkscape:randomized="3.1225023e-17"
       inkscape:rounded="0.09"
       inkscape:flatsided="true"
       sodipodi:arg2="1.0471976"
       sodipodi:arg1="0"
       sodipodi:r2="15.979315"
       sodipodi:r1="29.591324"
       sodipodi:cy="1015.6689"
       sodipodi:cx="252.11807"
       sodipodi:sides="3"
       id="path2892"
       style="fill:#e6e6e6;fill-opacity:0.2;stroke:none"
       sodipodi:type="star" />
    <rect
       inkscape:export-ydpi="90"
       inkscape:export-xdpi="90"
       inkscape:export-filename="C:\www\server\flash\stop.png"
       rx="5"
       ry="5"
       y="15"
       x="315.07715"
       height="50"
       width="50"
       id="rect2895"
       style="fill:#e6e6e6;fill-opacity:0.2;stroke:none" />
    <path
       style="fill:#e6e6e6;fill-opacity:0.2;stroke:none"
       d="M 255 240 C 252.23 240 250 242.23 250 245 L 250 285 C 250 287.77 252.23 290 255 290 L 260 290 C 262.77 290 265 287.77 265 285 L 265 245 C 265 242.23 262.77 240 260 240 L 255 240 z M 280 240 C 277.23 240 275 242.23 275 245 L 275 285 C 275 287.77 277.23 290 280 290 L 285 290 C 287.77 290 290 287.77 290 285 L 290 245 C 290 242.23 287.77 240 285 240 L 280 240 z "
       transform="translate(10.077162,-225)"
       id="rect2899" />
    <path
       style="fill:#e6e6e6;fill-opacity:0.2;stroke:none"
       d="M 372.0625 240.03125 C 371.97627 240.05391 371.89936 240.08637 371.84375 240.15625 C 370.06436 242.39229 370.06436 287.60771 371.84375 289.84375 C 373.35032 291.73695 386.4471 275.85853 390.4375 268.21875 C 390.51204 278.90416 390.91117 288.82892 391.71875 289.84375 C 393.49814 292.07979 411.5 269.47208 411.5 265 C 411.5 260.52792 393.49814 237.92021 391.71875 240.15625 C 390.91117 241.17108 390.51204 251.09584 390.4375 261.78125 C 386.59438 254.42345 374.31247 239.4399 372.0625 240.03125 z "
       transform="translate(10.077162,-225)"
       id="path2905" />
    <path
       style="fill:#e6e6e6;fill-opacity:0.2;stroke:none"
       d="M 470 240 C 467.22487 240 464.96875 242.23 464.96875 245 L 464.96875 261.53125 C 460.79693 253.79896 447.87576 238.28377 446.375 240.15625 C 445.56083 241.17209 445.13691 251.1149 445.0625 261.8125 C 441.05865 254.18213 427.86271 238.26106 426.34375 240.15625 C 424.5516 242.39229 424.5516 287.60771 426.34375 289.84375 C 427.86271 291.73894 441.05865 275.81787 445.0625 268.1875 C 445.13691 278.8851 445.56083 288.82791 446.375 289.84375 C 447.87576 291.71623 460.79693 276.20104 464.96875 268.46875 L 464.96875 285 C 464.96875 287.77 467.22487 290 470 290 C 472.77513 290 475 287.77 475 285 L 475 245 C 475 242.23 472.77513 240 470 240 z "
       transform="translate(10.077162,-225)"
       id="rect2911" />
    <path
       style="fill:#e6e6e6;fill-opacity:0.2;stroke:none"
       d="M 148.75 240.03125 C 145.30721 240.68907 129.5 260.80742 129.5 265 C 129.5 269.47208 147.50186 292.07979 149.28125 289.84375 C 150.08883 288.82892 150.48796 278.90416 150.5625 268.21875 C 154.5529 275.85853 167.64968 291.73695 169.15625 289.84375 C 170.93564 287.60771 170.93564 242.39229 169.15625 240.15625 C 167.64968 238.26305 154.5529 254.14147 150.5625 261.78125 C 150.48796 251.09584 150.08883 241.17108 149.28125 240.15625 C 149.17004 240.0165 148.97952 239.9874 148.75 240.03125 z "
       transform="translate(10.077162,-225)"
       id="path2919" />
    <path
       style="fill:#e6e6e6;fill-opacity:0.2;stroke:none"
       d="M 70 240 C 67.22487 240 65 242.23 65 245 L 65 285 C 65 287.77 67.22487 290 70 290 C 72.77513 290 75.03125 287.77 75.03125 285 L 75.03125 268.46875 C 79.203067 276.20104 92.124243 291.71623 93.625 289.84375 C 94.439174 288.82791 94.863087 278.8851 94.9375 268.1875 C 98.94135 275.81787 112.13729 291.73894 113.65625 289.84375 C 115.4484 287.60771 115.4484 242.39229 113.65625 240.15625 C 112.13729 238.26106 98.94135 254.18213 94.9375 261.8125 C 94.863087 251.1149 94.439174 241.17209 93.625 240.15625 C 92.124243 238.28377 79.203067 253.79896 75.03125 261.53125 L 75.03125 245 C 75.03125 242.23 72.77513 240 70 240 z "
       transform="translate(10.077162,-225)"
       id="rect2925" />
    <path
       style="fill:#e6e6e6;fill-opacity:0.2;stroke:none"
       d="M 30 244.71875 C 25.527918 244.71875 2.9202088 267.35449 5.15625 269.59375 C 7.3922912 271.83301 52.607709 271.83301 54.84375 269.59375 C 57.079791 267.35449 34.472082 244.71875 30 244.71875 z M 10 274 C 7.23 274 5 276.22487 5 279 C 5 281.77513 7.23 284.03125 10 284.03125 L 50 284.03125 C 52.77 284.03125 55 281.77513 55 279 C 55 276.22487 52.77 274 50 274 L 10 274 z "
       transform="translate(10.077162,-225)"
       id="rect2933" />
    <path
       style="fill:#e6e6e6;fill-opacity:0.2;stroke:none"
       d="M 509.0625 240.03125 C 507.06912 240.41213 500.94188 247.31065 496.125 253.875 L 487.96875 253.875 C 487.14783 253.875 486.5 254.86237 486.5 256.09375 L 486.5 273.90625 C 486.5 275.13763 487.14783 276.125 487.96875 276.125 L 496.125 276.125 C 501.4965 283.44517 508.51666 291.19726 509.59375 289.84375 C 511.37314 287.60771 511.37314 242.39229 509.59375 240.15625 C 509.48254 240.0165 509.29202 239.9874 509.0625 240.03125 z M 518.1875 264.1875 C 517.2457 264.1875 516.5 264.96445 516.5 265.90625 L 516.5 267.59375 C 516.5 268.53555 517.2457 269.3125 518.1875 269.3125 L 531.8125 269.3125 C 532.7543 269.3125 533.5 268.53555 533.5 267.59375 L 533.5 265.90625 C 533.5 264.96445 532.7543 264.1875 531.8125 264.1875 L 518.1875 264.1875 z "
       transform="translate(10.077162,-225)"
       id="rect2939" />
    <path
       style="fill:#e6e6e6;fill-opacity:0.2;stroke:none"
       d="M 569.0625 240.03125 C 567.06912 240.41213 560.94188 247.31065 556.125 253.875 L 547.96875 253.875 C 547.14783 253.875 546.5 254.86237 546.5 256.09375 L 546.5 273.90625 C 546.5 275.13763 547.14783 276.125 547.96875 276.125 L 556.125 276.125 C 561.4965 283.44517 568.51666 291.19726 569.59375 289.84375 C 571.37314 287.60771 571.37314 242.39229 569.59375 240.15625 C 569.48254 240.0165 569.29202 239.9874 569.0625 240.03125 z M 584.15625 258.25 C 583.21445 258.25 582.4375 258.9957 582.4375 259.9375 L 582.4375 264.1875 L 578.1875 264.1875 C 577.2457 264.1875 576.5 264.96445 576.5 265.90625 L 576.5 267.59375 C 576.5 268.53555 577.2457 269.3125 578.1875 269.3125 L 582.4375 269.3125 L 582.4375 273.5625 C 582.4375 274.5043 583.21445 275.25 584.15625 275.25 L 585.84375 275.25 C 586.78555 275.25 587.5625 274.5043 587.5625 273.5625 L 587.5625 269.3125 L 591.8125 269.3125 C 592.7543 269.3125 593.5 268.53555 593.5 267.59375 L 593.5 265.90625 C 593.5 264.96445 592.7543 264.1875 591.8125 264.1875 L 587.5625 264.1875 L 587.5625 259.9375 C 587.5625 258.9957 586.78555 258.25 585.84375 258.25 L 584.15625 258.25 z "
       transform="translate(10.077162,-225)"
       id="rect2947" />
    <path
       style="fill:#e6e6e6;fill-opacity:0.2;stroke:none"
       d="M 699.6875 245.9375 C 698.7457 245.9375 698 246.71445 698 247.65625 L 698 249.34375 C 698 250.28555 698.7457 251.0625 699.6875 251.0625 L 713.3125 251.0625 C 714.2543 251.0625 715 250.28555 715 249.34375 L 715 247.65625 C 715 246.71445 714.2543 245.9375 713.3125 245.9375 L 699.6875 245.9375 z M 685.375 250 C 685.03287 250 684.72702 250.05745 684.4375 250.125 C 682.32174 250.53571 680.17625 252.09807 679.34375 254 L 665.34375 286 C 664.37377 288.216 665.54976 290 667.96875 290 L 671.09375 290 C 673.51274 290 676.24877 288.216 677.21875 286 L 679.5 280.8125 L 694.5 280.8125 L 696.78125 286 C 697.75123 288.216 700.48726 290 702.90625 290 L 706.03125 290 C 708.45024 290 709.62623 288.216 708.65625 286 L 694.65625 254 C 693.82375 252.09807 691.67826 250.53571 689.5625 250.125 C 689.531 250.11889 689.50024 250.09934 689.46875 250.09375 C 689.45918 250.09181 689.44712 250.09563 689.4375 250.09375 C 689.16102 250.04608 688.89727 250.0051 688.625 250 L 688.53125 250 L 685.375 250 z M 687 263.65625 L 691 272.8125 L 683 272.8125 L 687 263.65625 z "
       transform="translate(10.077162,-225)"
       id="rect2957" />
    <path
       style="fill:#e6e6e6;fill-opacity:0.2;stroke:none"
       d="M 765.65625 240 C 764.71445 240 763.9375 240.7457 763.9375 241.6875 L 763.9375 245.9375 L 759.6875 245.9375 C 758.7457 245.9375 758 246.71445 758 247.65625 L 758 249.34375 C 758 250.28555 758.7457 251.0625 759.6875 251.0625 L 763.9375 251.0625 L 763.9375 255.3125 C 763.9375 256.2543 764.71445 257 765.65625 257 L 767.34375 257 C 768.28555 257 769.0625 256.2543 769.0625 255.3125 L 769.0625 251.0625 L 773.3125 251.0625 C 774.2543 251.0625 775 250.28555 775 249.34375 L 775 247.65625 C 775 246.71445 774.2543 245.9375 773.3125 245.9375 L 769.0625 245.9375 L 769.0625 241.6875 C 769.0625 240.7457 768.28555 240 767.34375 240 L 765.65625 240 z M 745.375 250 C 745.03287 250 744.72702 250.05745 744.4375 250.125 C 742.32174 250.53571 740.17625 252.09807 739.34375 254 L 725.34375 286 C 724.37377 288.216 725.54976 290 727.96875 290 L 731.09375 290 C 733.51274 290 736.24877 288.216 737.21875 286 L 739.5 280.8125 L 754.5 280.8125 L 756.78125 286 C 757.75123 288.216 760.48726 290 762.90625 290 L 766.03125 290 C 768.45024 290 769.62623 288.216 768.65625 286 L 754.65625 254 C 753.82375 252.09807 751.67826 250.53571 749.5625 250.125 C 749.531 250.11889 749.50024 250.09934 749.46875 250.09375 C 749.45918 250.09181 749.44712 250.09563 749.4375 250.09375 C 749.16102 250.04608 748.89727 250.0051 748.625 250 L 748.53125 250 L 745.375 250 z M 747 263.65625 L 751 272.8125 L 743 272.8125 L 747 263.65625 z "
       transform="translate(10.077162,-225)"
       id="rect2967" />
  </g>
</svg>
